<svg xmlns="http://www.w3.org/2000/svg" viewBox="0 0 720 182.19" xmlns:v="https://vecta.io/nano"><path d="M719.87 88.45h.13l-.13-5.17V70.93a3.26 3.26 0 0 0-3-3.22l-128-9.9-9.24-8.7a17.43 17.43 0 0 0-12-4.74h-18.9L519.45.3a.67.67 0 0 0-.56-.3h-88.58a.51.51 0 0 0-.17 0L394.8 10H244.58L230 6.37h-.16-26.11a.71.71 0 0 0-.26.05L190.9 11.7H75.07a.67.67 0 0 0-.62.39l-4.16 9.25-4 8.78H48.86a.67.67 0 0 0-.62.41l-1.36 3.16H36.56a.66.66 0 0 0-.62.41L34.27 38H15.93a.68.68 0 0 0-.67.67v9.86h-12A3.24 3.24 0 0 0 0 51.74v92.13a3.23 3.23 0 0 0 3.23 3.22H36a1.87 1.87 0 0 1 1.52.79l11 15.41a3.24 3.24 0 0 0 2.63 1.35h4.15l4.7 4.77a.68.68 0 0 0 .55.2.7.7 0 0 0 .5-.32l1.32-2.13 3.13 1.93-1.32 2.13a.65.65 0 0 0-.06.59.67.67 0 0 0 .42.4l6.39 2.08a.48.48 0 0 0 .2 0 .64.64 0 0 0 .38-.12.7.7 0 0 0 .3-.51l.16-2.08 1.12 2.59a3.24 3.24 0 0 0 3 1.94h17.77l-.61 1.21a.66.66 0 0 0 0 .58.64.64 0 0 0 .45.38l6.2 1.59a.71.71 0 0 0 .58-.12.73.73 0 0 0 .27-.54v-2.49h3.43v2.49a.72.72 0 0 0 .26.54.7.7 0 0 0 .42.13h.14l6.22-1.59a.73.73 0 0 0 .45-.38.69.69 0 0 0 0-.58l-.61-1.21h13.58l-.6 1.21a.66.66 0 0 0 0 .58.72.72 0 0 0 .46.38l6.2 1.59a.7.7 0 0 0 .58-.12.72.72 0 0 0 .26-.54v-2.49H135v2.49a.71.71 0 0 0 .25.54.72.72 0 0 0 .42.13h.16l6.23-1.59a.73.73 0 0 0 .45-.38.66.66 0 0 0 0-.58l-.6-1.21h13.58l-.61 1.21a.69.69 0 0 0 0 .58.71.71 0 0 0 .45.38l6.21 1.59a.66.66 0 0 0 .83-.66v-2.49h3.45v2.49a.72.72 0 0 0 .26.54.7.7 0 0 0 .42.13h.16l6.21-1.59a.68.68 0 0 0 .46-.38.69.69 0 0 0 0-.58l-.61-1.21h13.59l-.61 1.21a.68.68 0 0 0 .43 1l6.21 1.59a.7.7 0 0 0 .58-.12.69.69 0 0 0 .26-.54v-2.49h3.45v2.49a.72.72 0 0 0 .26.54.69.69 0 0 0 .41.13h.17l6.21-1.59a.65.65 0 0 0 .44-.38.63.63 0 0 0 0-.58l-.6-1.21H217l-.6 1.21a.66.66 0 0 0 0 .58.68.68 0 0 0 .45.38l6.21 1.59a.71.71 0 0 0 .58-.12.72.72 0 0 0 .26-.54v-2.49h3.43v2.49a.73.73 0 0 0 .27.54.67.67 0 0 0 .41.13h.17l6.22-1.59a.65.65 0 0 0 .44-.38.69.69 0 0 0 0-.58l-.61-1.21h117.1l-.6 1.21a.66.66 0 0 0 0 .58.68.68 0 0 0 .45.38l6.21 1.59a.7.7 0 0 0 .58-.12.72.72 0 0 0 .26-.54v-2.49h3.43v2.49a.73.73 0 0 0 .27.54.69.69 0 0 0 .41.13h.17l6.22-1.59a.65.65 0 0 0 .44-.38.66.66 0 0 0 0-.58l-.61-1.21h10.71a2 2 0 0 1 .85.19l10.88 5.44a3.09 3.09 0 0 0 1.44.35h24.13a3.37 3.37 0 0 0 1.91-.62l6-4.37a1.87 1.87 0 0 1 1.12-.36h12.15l-.27.92a.74.74 0 0 0 .1.58.7.7 0 0 0 .51.28l6.39.44h0a.66.66 0 0 0 .67-.79l-.27-1.43h3.51l.15.82a.65.65 0 0 0 .35.47.68.68 0 0 0 .59 0l2.84-1.31h16.3v.2a.68.68 0 0 0 .67.64h.19l2.78-.81h40.7a3.16 3.16 0 0 0 2.13-.81L527 165.55l1.91 3.23a.64.64 0 0 0 .49.32h.09a.72.72 0 0 0 .46-.19l4.72-4.33a.72.72 0 0 0 .21-.55.65.65 0 0 0-.31-.51l-2.1-1.36 1.87-2.9 2.11 1.37a.68.68 0 0 0 .59.07.72.72 0 0 0 .42-.42l1.92-5.73 12.21-10.82h27.59a17.41 17.41 0 0 0 12-4.74l8.59-8.06 117-5.78a3.25 3.25 0 0 0 3.08-3.24v-10.07l.13-5.18h-.13zM517.54 55.23l.54 3.73L483.81 64l-.56-3.72zM482.52 41l-.52-3.77 19.4-2.86h15v-1.55l.45 3.08zm33.09-31l2.39 3.67L412.24 27.9h-29.48zM1.35 108l18.11-2.67.55 3.73-18.66 2.75zm0 27.06v-3.82l19.39-2.85.55 3.73zm54.81-35.14l34.29-5 .55 3.7-34.28 5zm1.84 26.8l-.56-3.72 34.28-5 .55 3.73zm69.14-37.24l34.28-5 .55 3.72-34.27 5zm1.86 26.79l-.56-3.73 34.28-5.07.55 3.75zM198.09 79l34.29-5 .54 3.73-34.27 5.06zm1.84 26.79l-.56-3.73 34.29-5 .54 3.72zM1.35 83.17v-4l333.26-44.8h29.49zm373-30.1l.54 3.74-34.28 5-.61-3.68zm-83.52 59.41l.58.35-3.23 5.46a.66.66 0 0 0 0 .65l4.62 9.29-.85 1.45-6.95-1.14a.63.63 0 0 0-.53.13.62.62 0 0 0-.25.47l-.46 6.15-4.48-1.29 1.18-2a.67.67 0 0 0-.25-.92l-4.12-2.44a.68.68 0 0 0-.92.23l-1.17 2-3.34-3.34 5.16-3.35a.67.67 0 0 0 .3-.45.8.8 0 0 0-.14-.54l-4.31-5.46.85-1.45 10.37-.42a.67.67 0 0 0 .56-.34l3.22-5.46.65.38a.64.64 0 0 0 .86-.16l4.49-5.66.66.39-2.81 6.66a.65.65 0 0 0 .29.81zM270.9 95.37l-.55-3.75 34.27-5 .57 3.73zm-20.39-5.89l-1.16-4.89a.65.65 0 0 0-.81-.5l-2.25.54v-5l6 1.51a.65.65 0 0 0 .54-.1.6.6 0 0 0 .28-.47l.88-7.22 1.63-.38 7.59 7.59a.66.66 0 0 0 .63.17l6.17-1.45.18.73a.7.7 0 0 0 .71.51l7.21-.65.19.84-6.72 2.65a.67.67 0 0 0-.41.78l.19.8-6.18 1.46a.68.68 0 0 0-.49.44L261.36 97l-1.62.38-4-6.06a.67.67 0 0 0-.47-.29.18.18 0 0 0-.09 0 .74.74 0 0 0-.45.17l-4.69 4-2.26-4.46 2.25-.52a.67.67 0 0 0 .5-.81zm18.56-20.89l34.27-5.07.55 3.75-34.28 5zm-21.57 60.27l-1.17 2-3.33-3.35 5.16-3.35a.67.67 0 0 0 .3-.45.8.8 0 0 0-.14-.54l-4.32-5.46.85-1.45 10.38-.42a.68.68 0 0 0 .55-.34L259 110l.65.38a.64.64 0 0 0 .86-.16l4.49-5.62.66.39-2.81 6.66a.65.65 0 0 0 .29.83l.58.35-3.23 5.46a.66.66 0 0 0 0 .65l4.62 9.29-.85 1.45-6.87-1.14a.63.63 0 0 0-.53.13.62.62 0 0 0-.25.47l-.46 6.15-4.54-1.29 1.18-2a.67.67 0 0 0-.25-.92l-4.12-2.44a.68.68 0 0 0-.92.22zm53.86 27l-12.29 7.09h-25.21l-12.29-7.09v-6.16l12.29-7.09h25.21l12.29 7.09zm17.12-43.35l.59.35-3.25 5.46a.68.68 0 0 0 0 .65l3 6-4.34 3.9h0l-1.73-.29a.67.67 0 0 0-.53.14.64.64 0 0 0-.25.48l-.15 2h0l-3.68 3.15-1.16-.33 1.18-2a.67.67 0 0 0-.24-.92l-4.12-2.44a.7.7 0 0 0-.51-.08.74.74 0 0 0-.41.31l-1.17 2-3.34-3.34 5.16-3.34a.75.75 0 0 0 .29-.46.67.67 0 0 0-.13-.52l-4.31-5.48.85-1.45 10.36-.42a.65.65 0 0 0 .55-.34l3.24-5.46.63.38a.67.67 0 0 0 .88-.16l4.49-5.66.66.39-2.81 6.66a.65.65 0 0 0 .25.79zm25.17-9.11l.58.34-3.23 5.44a.66.66 0 0 0 0 .64l4.63 9.29-.85 1.45-6.88-1.15a.65.65 0 0 0-.52.14.66.66 0 0 0-.26.48l-.46 6.15-4.51-1.32 1.17-2a.66.66 0 0 0-.24-.91l-4.13-2.44a.57.57 0 0 0-.51-.07.67.67 0 0 0-.4.3l-1.17 2-3.35-3.33 5.16-3.36a.62.62 0 0 0 .3-.45.76.76 0 0 0-.13-.53l-4.32-5.47.85-1.44 10.38-.43a.72.72 0 0 0 .55-.33l3.22-5.47.65.39a.68.68 0 0 0 .86-.16l4.49-5.66.66.38-2.8 6.65a.68.68 0 0 0 .26.84zm-1.78-18.46l-.55-3.73 34.27-5.05.56 3.72zm61.89 16.91l-7.15 1a.65.65 0 0 0-.58.66v.81h-6.35a.67.67 0 0 0-.57.32l-5.65 9.14h-1.67l-2.5-6.82a.67.67 0 0 0-.39-.4.73.73 0 0 0-.56 0l-5.5 2.87-1.18-4.86H374a.67.67 0 0 0 .67-.67v-5a.66.66 0 0 0-.67-.67h-2.32l1.18-4.84 5.5 2.86a.65.65 0 0 0 .56 0 .68.68 0 0 0 .39-.39l2.5-6.82h1.67l5.65 9.13a.67.67 0 0 0 .57.32h6.3v.74a.69.69 0 0 0 .58.68l7.15 1zM411 47.67l34.28-5.05.55 3.74-34.29 5zm1.82 26.79l-.54-3.74L444.07 66l-1.47 4-4.56.68-2-1a.71.71 0 0 0-.59 0 .7.7 0 0 0-.38.46l-.25 1zM442 71.53l-.41 1.1-1.56-.81zm4.5 104l1.62-.29v.29zm20.58-48.4l-7.17 1a.68.68 0 0 0-.58.66v.82H453a.7.7 0 0 0-.58.31l-5.65 9.14h-1.66l-2.52-6.82a.67.67 0 0 0-.39-.4.63.63 0 0 0-.55 0l-5.5 2.86-1.15-4.82h2.32a.67.67 0 0 0 .67-.67v-5a.66.66 0 0 0-.67-.67H435l1.19-4.84 5.5 2.86a.59.59 0 0 0 .55 0 .63.63 0 0 0 .39-.39l2.52-6.82h1.66l5.65 9.14a.67.67 0 0 0 .58.31h6.33v.76a.68.68 0 0 0 .58.66l7.17 1zm0-47.34l-7.17 1a.69.69 0 0 0-.58.67v.82H453a.67.67 0 0 0-.58.31l-5.65 9.14h-1.66l-2.52-6.82a.64.64 0 0 0-.39-.4.63.63 0 0 0-.55 0l-5.5 2.86-1.15-4.83h2.32a.67.67 0 0 0 .67-.68v-5a.67.67 0 0 0-.67-.68H435l1.19-4.84 5.5 2.86a.6.6 0 0 0 .55 0 .63.63 0 0 0 .39-.39l2.52-6.81h1.66l5.65 9.13a.67.67 0 0 0 .58.31h6.33v.76a.67.67 0 0 0 .58.66l7.17 1zM334.53 33h-74.3v-3.75H515V33zm384 84H481.89v-2.49h236.63zm-217.22-15.35l22.69.66-.09 2.49-22.66-.65zM501.25 91l22.66-.66.09 2.5-22.69.66zm48.29 12.08l23.11.67-.08 2.48-23.1-.66zm-.07-13.48l23.1-.66.08 2.48-23.11.68zm48.72 14.89l23.11.68-.06 2.49-23.12-.66zm-.07-16.29l23.12-.69.06 2.5-23.11.68zm48.74 17.71l23.1.66-.07 2.51-23.11-.69zm-.08-19.14l23.11-.66.07 2.49-23.1.67zm71.74 23.71l-23.09-.66.08-2.49 23 .67zm0-23.3l-23 .68-.08-2.5 23.09-.66zm0-6.55H481.89v-2.51h236.63zm-431.78 63.3h-20.17a.66.66 0 0 0-.67.67v16.3a.68.68 0 0 0 .67.67h20.17a.68.68 0 0 0 .67-.67v-16.3a.66.66 0 0 0-.67-.67z"/></svg>