<svg xmlns="http://www.w3.org/2000/svg" xmlns:xlink="http://www.w3.org/1999/xlink" version="1.1" width="512" height="512" viewBox="0 0 512 512" xml:space="preserve">
<desc>Created with Fabric.js 3.5.0</desc>
<defs>
</defs>
<rect x="0" y="0" width="100%" height="100%" fill="rgba(255,255,255,0)"/>
<g transform="matrix(0.7111 0 0 0.6916 255.996 260.5935)" id="322824">
<path style="stroke: none; stroke-width: 0; stroke-dasharray: none; stroke-linecap: butt; stroke-dashoffset: 0; stroke-linejoin: miter; stroke-miterlimit: 4; is-custom-font: none; font-file-url: none; fill: rgb(57,181,74); fill-rule: nonzero; opacity: 1;" vector-effect="non-scaling-stroke" transform=" translate(-360, -91.0914)" d="M 719.87 88.45 h 0.13 l -0.13 -5.17 V 70.93 a 3.26 3.26 0 0 0 -3 -3.22 l -128 -9.9 l -9.24 -8.7 a 17.43 17.43 0 0 0 -12 -4.74 h -18.9 L 519.45 0.3 a 0.67 0.67 0 0 0 -0.56 -0.3 h -88.58 a 0.51 0.51 0 0 0 -0.17 0 L 394.8 10 H 244.58 L 230 6.37 h -0.16 h -26.11 a 0.71 0.71 0 0 0 -0.26 0.05 L 190.9 11.7 H 75.07 a 0.67 0.67 0 0 0 -0.62 0.39 l -4.16 9.25 l -4 8.78 H 48.86 a 0.67 0.67 0 0 0 -0.62 0.41 l -1.36 3.16 H 36.56 a 0.66 0.66 0 0 0 -0.62 0.41 L 34.27 38 H 15.93 a 0.68 0.68 0 0 0 -0.67 0.67 v 9.86 h -12 A 3.24 3.24 0 0 0 0 51.74 v 92.13 a 3.23 3.23 0 0 0 3.23 3.22 H 36 a 1.87 1.87 0 0 1 1.52 0.79 l 11 15.41 a 3.24 3.24 0 0 0 2.63 1.35 h 4.15 l 4.7 4.77 a 0.68 0.68 0 0 0 0.55 0.2 a 0.7 0.7 0 0 0 0.5 -0.32 l 1.32 -2.13 l 3.13 1.93 l -1.32 2.13 a 0.65 0.65 0 0 0 -0.06 0.59 a 0.67 0.67 0 0 0 0.42 0.4 l 6.39 2.08 a 0.48 0.48 0 0 0 0.2 0 a 0.64 0.64 0 0 0 0.38 -0.12 a 0.7 0.7 0 0 0 0.3 -0.51 l 0.16 -2.08 l 1.12 2.59 a 3.24 3.24 0 0 0 3 1.94 h 17.77 l -0.61 1.21 a 0.66 0.66 0 0 0 0 0.58 a 0.64 0.64 0 0 0 0.45 0.38 l 6.2 1.59 a 0.71 0.71 0 0 0 0.58 -0.12 a 0.73 0.73 0 0 0 0.27 -0.54 v -2.49 h 3.43 v 2.49 a 0.72 0.72 0 0 0 0.26 0.54 a 0.7 0.7 0 0 0 0.42 0.13 h 0.14 l 6.22 -1.59 a 0.73 0.73 0 0 0 0.45 -0.38 a 0.69 0.69 0 0 0 0 -0.58 l -0.61 -1.21 h 13.58 l -0.6 1.21 a 0.66 0.66 0 0 0 0 0.58 a 0.72 0.72 0 0 0 0.46 0.38 l 6.2 1.59 a 0.7 0.7 0 0 0 0.58 -0.12 a 0.72 0.72 0 0 0 0.26 -0.54 v -2.49 H 135 v 2.49 a 0.71 0.71 0 0 0 0.25 0.54 a 0.72 0.72 0 0 0 0.42 0.13 h 0.16 l 6.23 -1.59 a 0.73 0.73 0 0 0 0.45 -0.38 a 0.66 0.66 0 0 0 0 -0.58 l -0.6 -1.21 h 13.58 l -0.61 1.21 a 0.69 0.69 0 0 0 0 0.58 a 0.71 0.71 0 0 0 0.45 0.38 l 6.21 1.59 a 0.66 0.66 0 0 0 0.83 -0.66 v -2.49 h 3.45 v 2.49 a 0.72 0.72 0 0 0 0.26 0.54 a 0.7 0.7 0 0 0 0.42 0.13 h 0.16 l 6.21 -1.59 a 0.68 0.68 0 0 0 0.46 -0.38 a 0.69 0.69 0 0 0 0 -0.58 l -0.61 -1.21 h 13.59 l -0.61 1.21 a 0.68 0.68 0 0 0 0.43 1 l 6.21 1.59 a 0.7 0.7 0 0 0 0.58 -0.12 a 0.69 0.69 0 0 0 0.26 -0.54 v -2.49 h 3.45 v 2.49 a 0.72 0.72 0 0 0 0.26 0.54 a 0.69 0.69 0 0 0 0.41 0.13 h 0.17 l 6.21 -1.59 a 0.65 0.65 0 0 0 0.44 -0.38 a 0.63 0.63 0 0 0 0 -0.58 l -0.6 -1.21 H 217 l -0.6 1.21 a 0.66 0.66 0 0 0 0 0.58 a 0.68 0.68 0 0 0 0.45 0.38 l 6.21 1.59 a 0.71 0.71 0 0 0 0.58 -0.12 a 0.72 0.72 0 0 0 0.26 -0.54 v -2.49 h 3.43 v 2.49 a 0.73 0.73 0 0 0 0.27 0.54 a 0.67 0.67 0 0 0 0.41 0.13 h 0.17 l 6.22 -1.59 a 0.65 0.65 0 0 0 0.44 -0.38 a 0.69 0.69 0 0 0 0 -0.58 l -0.61 -1.21 h 117.1 l -0.6 1.21 a 0.66 0.66 0 0 0 0 0.58 a 0.68 0.68 0 0 0 0.45 0.38 l 6.21 1.59 a 0.7 0.7 0 0 0 0.58 -0.12 a 0.72 0.72 0 0 0 0.26 -0.54 v -2.49 h 3.43 v 2.49 a 0.73 0.73 0 0 0 0.27 0.54 a 0.69 0.69 0 0 0 0.41 0.13 h 0.17 l 6.22 -1.59 a 0.65 0.65 0 0 0 0.44 -0.38 a 0.66 0.66 0 0 0 0 -0.58 l -0.61 -1.21 h 10.71 a 2 2 0 0 1 0.85 0.19 l 10.88 5.44 a 3.09 3.09 0 0 0 1.44 0.35 h 24.13 a 3.37 3.37 0 0 0 1.91 -0.62 l 6 -4.37 a 1.87 1.87 0 0 1 1.12 -0.36 h 12.15 l -0.27 0.92 a 0.74 0.74 0 0 0 0.1 0.58 a 0.7 0.7 0 0 0 0.51 0.28 l 6.39 0.44 h 0 a 0.66 0.66 0 0 0 0.67 -0.79 l -0.27 -1.43 h 3.51 l 0.15 0.82 a 0.65 0.65 0 0 0 0.35 0.47 a 0.68 0.68 0 0 0 0.59 0 l 2.84 -1.31 h 16.3 v 0.2 a 0.68 0.68 0 0 0 0.67 0.64 h 0.19 l 2.78 -0.81 h 40.7 a 3.16 3.16 0 0 0 2.13 -0.81 L 527 165.55 l 1.91 3.23 a 0.64 0.64 0 0 0 0.49 0.32 h 0.09 a 0.72 0.72 0 0 0 0.46 -0.19 l 4.72 -4.33 a 0.72 0.72 0 0 0 0.21 -0.55 a 0.65 0.65 0 0 0 -0.31 -0.51 l -2.1 -1.36 l 1.87 -2.9 l 2.11 1.37 a 0.68 0.68 0 0 0 0.59 0.07 a 0.72 0.72 0 0 0 0.42 -0.42 l 1.92 -5.73 l 12.21 -10.82 h 27.59 a 17.41 17.41 0 0 0 12 -4.74 l 8.59 -8.06 l 117 -5.78 a 3.25 3.25 0 0 0 3.08 -3.24 v -10.07 l 0.13 -5.18 h -0.13 z M 517.54 55.23 l 0.54 3.73 L 483.81 64 l -0.56 -3.72 z M 482.52 41 l -0.52 -3.77 l 19.4 -2.86 h 15 v -1.55 l 0.45 3.08 z m 33.09 -31 l 2.39 3.67 L 412.24 27.9 h -29.48 z M 1.35 108 l 18.11 -2.67 l 0.55 3.73 l -18.66 2.75 z m 0 27.06 v -3.82 l 19.39 -2.85 l 0.55 3.73 z m 54.81 -35.14 l 34.29 -5 l 0.55 3.7 l -34.28 5 z m 1.84 26.8 l -0.56 -3.72 l 34.28 -5 l 0.55 3.73 z m 69.14 -37.24 l 34.28 -5 l 0.55 3.72 l -34.27 5 z m 1.86 26.79 l -0.56 -3.73 l 34.28 -5.07 l 0.55 3.75 z M 198.09 79 l 34.29 -5 l 0.54 3.73 l -34.27 5.06 z m 1.84 26.79 l -0.56 -3.73 l 34.29 -5 l 0.54 3.72 z M 1.35 83.17 v -4 l 333.26 -44.8 h 29.49 z m 373 -30.1 l 0.54 3.74 l -34.28 5 l -0.61 -3.68 z m -83.52 59.41 l 0.58 0.35 l -3.23 5.46 a 0.66 0.66 0 0 0 0 0.65 l 4.62 9.29 l -0.85 1.45 l -6.95 -1.14 a 0.63 0.63 0 0 0 -0.53 0.13 a 0.62 0.62 0 0 0 -0.25 0.47 l -0.46 6.15 l -4.48 -1.29 l 1.18 -2 a 0.67 0.67 0 0 0 -0.25 -0.92 l -4.12 -2.44 a 0.68 0.68 0 0 0 -0.92 0.23 l -1.17 2 l -3.34 -3.34 l 5.16 -3.35 a 0.67 0.67 0 0 0 0.3 -0.45 a 0.8 0.8 0 0 0 -0.14 -0.54 l -4.31 -5.46 l 0.85 -1.45 l 10.37 -0.42 a 0.67 0.67 0 0 0 0.56 -0.34 l 3.22 -5.46 l 0.65 0.38 a 0.64 0.64 0 0 0 0.86 -0.16 l 4.49 -5.66 l 0.66 0.39 l -2.81 6.66 a 0.65 0.65 0 0 0 0.29 0.81 z M 270.9 95.37 l -0.55 -3.75 l 34.27 -5 l 0.57 3.73 z m -20.39 -5.89 l -1.16 -4.89 a 0.65 0.65 0 0 0 -0.81 -0.5 l -2.25 0.54 v -5 l 6 1.51 a 0.65 0.65 0 0 0 0.54 -0.1 a 0.6 0.6 0 0 0 0.28 -0.47 l 0.88 -7.22 l 1.63 -0.38 l 7.59 7.59 a 0.66 0.66 0 0 0 0.63 0.17 l 6.17 -1.45 l 0.18 0.73 a 0.7 0.7 0 0 0 0.71 0.51 l 7.21 -0.65 l 0.19 0.84 l -6.72 2.65 a 0.67 0.67 0 0 0 -0.41 0.78 l 0.19 0.8 l -6.18 1.46 a 0.68 0.68 0 0 0 -0.49 0.44 L 261.36 97 l -1.62 0.38 l -4 -6.06 a 0.67 0.67 0 0 0 -0.47 -0.29 a 0.18 0.18 0 0 0 -0.09 0 a 0.74 0.74 0 0 0 -0.45 0.17 l -4.69 4 l -2.26 -4.46 l 2.25 -0.52 a 0.67 0.67 0 0 0 0.5 -0.81 z m 18.56 -20.89 l 34.27 -5.07 l 0.55 3.75 l -34.28 5 z m -21.57 60.27 l -1.17 2 l -3.33 -3.35 l 5.16 -3.35 a 0.67 0.67 0 0 0 0.3 -0.45 a 0.8 0.8 0 0 0 -0.14 -0.54 l -4.32 -5.46 l 0.85 -1.45 l 10.38 -0.42 a 0.68 0.68 0 0 0 0.55 -0.34 L 259 110 l 0.65 0.38 a 0.64 0.64 0 0 0 0.86 -0.16 l 4.49 -5.62 l 0.66 0.39 l -2.81 6.66 a 0.65 0.65 0 0 0 0.29 0.83 l 0.58 0.35 l -3.23 5.46 a 0.66 0.66 0 0 0 0 0.65 l 4.62 9.29 l -0.85 1.45 l -6.87 -1.14 a 0.63 0.63 0 0 0 -0.53 0.13 a 0.62 0.62 0 0 0 -0.25 0.47 l -0.46 6.15 l -4.54 -1.29 l 1.18 -2 a 0.67 0.67 0 0 0 -0.25 -0.92 l -4.12 -2.44 a 0.68 0.68 0 0 0 -0.92 0.22 z m 53.86 27 l -12.29 7.09 h -25.21 l -12.29 -7.09 v -6.16 l 12.29 -7.09 h 25.21 l 12.29 7.09 z m 17.12 -43.35 l 0.59 0.35 l -3.25 5.46 a 0.68 0.68 0 0 0 0 0.65 l 3 6 l -4.34 3.9 h 0 l -1.73 -0.29 a 0.67 0.67 0 0 0 -0.53 0.14 a 0.64 0.64 0 0 0 -0.25 0.48 l -0.15 2 h 0 l -3.68 3.15 l -1.16 -0.33 l 1.18 -2 a 0.67 0.67 0 0 0 -0.24 -0.92 l -4.12 -2.44 a 0.7 0.7 0 0 0 -0.51 -0.08 a 0.74 0.74 0 0 0 -0.41 0.31 l -1.17 2 l -3.34 -3.34 l 5.16 -3.34 a 0.75 0.75 0 0 0 0.29 -0.46 a 0.67 0.67 0 0 0 -0.13 -0.52 l -4.31 -5.48 l 0.85 -1.45 l 10.36 -0.42 a 0.65 0.65 0 0 0 0.55 -0.34 l 3.24 -5.46 l 0.63 0.38 a 0.67 0.67 0 0 0 0.88 -0.16 l 4.49 -5.66 l 0.66 0.39 l -2.81 6.66 a 0.65 0.65 0 0 0 0.25 0.79 z m 25.17 -9.11 l 0.58 0.34 l -3.23 5.44 a 0.66 0.66 0 0 0 0 0.64 l 4.63 9.29 l -0.85 1.45 l -6.88 -1.15 a 0.65 0.65 0 0 0 -0.52 0.14 a 0.66 0.66 0 0 0 -0.26 0.48 l -0.46 6.15 l -4.51 -1.32 l 1.17 -2 a 0.66 0.66 0 0 0 -0.24 -0.91 l -4.13 -2.44 a 0.57 0.57 0 0 0 -0.51 -0.07 a 0.67 0.67 0 0 0 -0.4 0.3 l -1.17 2 l -3.35 -3.33 l 5.16 -3.36 a 0.62 0.62 0 0 0 0.3 -0.45 a 0.76 0.76 0 0 0 -0.13 -0.53 l -4.32 -5.47 l 0.85 -1.44 l 10.38 -0.43 a 0.72 0.72 0 0 0 0.55 -0.33 l 3.22 -5.47 l 0.65 0.39 a 0.68 0.68 0 0 0 0.86 -0.16 l 4.49 -5.66 l 0.66 0.38 l -2.8 6.65 a 0.68 0.68 0 0 0 0.26 0.84 z m -1.78 -18.46 l -0.55 -3.73 l 34.27 -5.05 l 0.56 3.72 z m 61.89 16.91 l -7.15 1 a 0.65 0.65 0 0 0 -0.58 0.66 v 0.81 h -6.35 a 0.67 0.67 0 0 0 -0.57 0.32 l -5.65 9.14 h -1.67 l -2.5 -6.82 a 0.67 0.67 0 0 0 -0.39 -0.4 a 0.73 0.73 0 0 0 -0.56 0 l -5.5 2.87 l -1.18 -4.86 H 374 a 0.67 0.67 0 0 0 0.67 -0.67 v -5 a 0.66 0.66 0 0 0 -0.67 -0.67 h -2.32 l 1.18 -4.84 l 5.5 2.86 a 0.65 0.65 0 0 0 0.56 0 a 0.68 0.68 0 0 0 0.39 -0.39 l 2.5 -6.82 h 1.67 l 5.65 9.13 a 0.67 0.67 0 0 0 0.57 0.32 h 6.3 v 0.74 a 0.69 0.69 0 0 0 0.58 0.68 l 7.15 1 z M 411 47.67 l 34.28 -5.05 l 0.55 3.74 l -34.29 5 z m 1.82 26.79 l -0.54 -3.74 L 444.07 66 l -1.47 4 l -4.56 0.68 l -2 -1 a 0.71 0.71 0 0 0 -0.59 0 a 0.7 0.7 0 0 0 -0.38 0.46 l -0.25 1 z M 442 71.53 l -0.41 1.1 l -1.56 -0.81 z m 4.5 104 l 1.62 -0.29 v 0.29 z m 20.58 -48.4 l -7.17 1 a 0.68 0.68 0 0 0 -0.58 0.66 v 0.82 H 453 a 0.7 0.7 0 0 0 -0.58 0.31 l -5.65 9.14 h -1.66 l -2.52 -6.82 a 0.67 0.67 0 0 0 -0.39 -0.4 a 0.63 0.63 0 0 0 -0.55 0 l -5.5 2.86 l -1.15 -4.82 h 2.32 a 0.67 0.67 0 0 0 0.67 -0.67 v -5 a 0.66 0.66 0 0 0 -0.67 -0.67 H 435 l 1.19 -4.84 l 5.5 2.86 a 0.59 0.59 0 0 0 0.55 0 a 0.63 0.63 0 0 0 0.39 -0.39 l 2.52 -6.82 h 1.66 l 5.65 9.14 a 0.67 0.67 0 0 0 0.58 0.31 h 6.33 v 0.76 a 0.68 0.68 0 0 0 0.58 0.66 l 7.17 1 z m 0 -47.34 l -7.17 1 a 0.69 0.69 0 0 0 -0.58 0.67 v 0.82 H 453 a 0.67 0.67 0 0 0 -0.58 0.31 l -5.65 9.14 h -1.66 l -2.52 -6.82 a 0.64 0.64 0 0 0 -0.39 -0.4 a 0.63 0.63 0 0 0 -0.55 0 l -5.5 2.86 l -1.15 -4.83 h 2.32 a 0.67 0.67 0 0 0 0.67 -0.68 v -5 a 0.67 0.67 0 0 0 -0.67 -0.68 H 435 l 1.19 -4.84 l 5.5 2.86 a 0.6 0.6 0 0 0 0.55 0 a 0.63 0.63 0 0 0 0.39 -0.39 l 2.52 -6.81 h 1.66 l 5.65 9.13 a 0.67 0.67 0 0 0 0.58 0.31 h 6.33 v 0.76 a 0.67 0.67 0 0 0 0.58 0.66 l 7.17 1 z M 334.53 33 h -74.3 v -3.75 H 515 V 33 z m 384 84 H 481.89 v -2.49 h 236.63 z m -217.22 -15.35 l 22.69 0.66 l -0.09 2.49 l -22.66 -0.65 z M 501.25 91 l 22.66 -0.66 l 0.09 2.5 l -22.69 0.66 z m 48.29 12.08 l 23.11 0.67 l -0.08 2.48 l -23.1 -0.66 z m -0.07 -13.48 l 23.1 -0.66 l 0.08 2.48 l -23.11 0.68 z m 48.72 14.89 l 23.11 0.68 l -0.06 2.49 l -23.12 -0.66 z m -0.07 -16.29 l 23.12 -0.69 l 0.06 2.5 l -23.11 0.68 z m 48.74 17.71 l 23.1 0.66 l -0.07 2.51 l -23.11 -0.69 z m -0.08 -19.14 l 23.11 -0.66 l 0.07 2.49 l -23.1 0.67 z m 71.74 23.71 l -23.09 -0.66 l 0.08 -2.49 l 23 0.67 z m 0 -23.3 l -23 0.68 l -0.08 -2.5 l 23.09 -0.66 z m 0 -6.55 H 481.89 v -2.51 h 236.63 z m -431.78 63.3 h -20.17 a 0.66 0.66 0 0 0 -0.67 0.67 v 16.3 a 0.68 0.68 0 0 0 0.67 0.67 h 20.17 a 0.68 0.68 0 0 0 0.67 -0.67 v -16.3 a 0.66 0.66 0 0 0 -0.67 -0.67 z" stroke-linecap="round"/>
</g>
</svg>