<svg xmlns="http://www.w3.org/2000/svg" viewBox="0 0 720 537.85"><g id="Layer_2" data-name="Layer 2"><g id="Layer_1-2" data-name="Layer 1"><path d="M720,348.9a1,1,0,0,0-.56-.91L472,229.88l44.86-18.35a1,1,0,0,0,.63-1,1,1,0,0,0-.71-.9L297.67,145.26v-35H313a1,1,0,0,0,.89-.52l7.6-13.9a1,1,0,0,0,0-1,1,1,0,0,0-.89-.5h-23V73.29a1,1,0,0,0-1-1h-5.41L291,61.76l30-11.12a1,1,0,0,0-.35-2h-30l-.26-10.3L321,27a1,1,0,0,0-.35-1.93h-30.6l-.16-6h10.14a1,1,0,0,0,1-1V11.11a1,1,0,0,0-1-1h-6.88A7.78,7.78,0,1,0,278,7.81a7.51,7.51,0,0,0,.35,2.29H271a1,1,0,0,0-1,1v6.94a1,1,0,0,0,1,1h10.12l-.16,6H250.43a1,1,0,0,0-1,.82,1,1,0,0,0,.65,1.13l30.5,11.19-.26,10.46h-29.9a1,1,0,0,0-1,.84,1,1,0,0,0,.65,1.11l29.92,11-.27,10.65h-5.41a1,1,0,0,0-1,1v9.92h-30.1a1.05,1.05,0,0,0-.89.54,1,1,0,0,0,.06,1l7.43,10.88v13.6a.78.78,0,0,0,0,.21v24.66H35.46a1,1,0,0,0-1,1v52.2L4.7,197.08a1,1,0,0,0-.66.73l-4,16.53a1,1,0,0,0,0,.24v17.65c-.08.5-.1.74.87,1v.11a1.22,1.22,0,0,0,.38,0c1,.22,2.72.48,5.72.94l38.4,5.78c45.07,6.78,73.39,66.81,73.68,67.41a.93.93,0,0,0,.36.42l359.32,229.8a1.06,1.06,0,0,0,.54.16,1.11,1.11,0,0,0,.5-.14,1,1,0,0,0,.51-.89c-.93-44.72,22.67-72.1,24.88-74.56,195.86-67.27,214-93.06,214.67-94.13l0,0a.89.89,0,0,0,.16-.52ZM513.48,210.76l-44.3,18.11a1,1,0,0,0-.64.9,1,1,0,0,0,.58.93L714.93,348.05l-20.12.85.44-.91L447.85,229.88l44.89-18.35a1,1,0,0,0-.1-1.89L297.47,152.3a1,1,0,0,0,.2-.59v-4.38ZM248.84,207.6l7.34-.52L447,352.2H428Zm176,144.6H405.67L237.09,208.45l8.81-.62h0ZM295.5,191H363l15.92,5H311.39Zm73.55,17.08,4.83-1,241.3,137.81-16.34.67Zm7.85-1.59,5.47-1.13L635.28,344.09l-16.3.66ZM319,96.39l-.78,1.43H251.86V96.39Zm-72.44-9.16-1.37-2h28.19v2ZM264.09,191,280,196H212.47l-15.92-5Zm-66.33-54.85h10.3l-3.9,8-11.53,0Zm-6.42,9.94c4,0,8,0,11.83,0l-6,12.39-13.8,0ZM182,160.53l14.1,0-6.06,12.39H174ZM172.71,175h16.38L183,187.34l-18.32,0Zm-9.29,14.39,18.63,0L176,201.77h-.7c-6.56,0-13.22,0-19.86,0Zm-9.32,14.4c7,0,14,0,20.89,0l-6.06,12.41c-5.37,0-10.8-.06-16.22-.06l-6.59,0Zm-9.27,14.39,7.88,0c5.09,0,10.18,0,15.23,0v0l-6.86,14-23.57-2.76Zm-24.1-53.32L105,215.91H95.48L115,164.81ZM93.3,215.91H83.47l24.36-51.1h5Zm7.21-79.75h10.62l-6.48,8.43q-4.38-1.56-9-3.22Zm-6.3,6.8c3.1,1.15,6.16,2.24,9.13,3.32L92.88,159.86c-1.87-.66-3.76-1.35-5.67-2.05-1.65-.58-3.34-1.21-5-1.81ZM80.67,157.61l5.85,2.09c1.71.63,3.4,1.23,5.07,1.83l-10.46,13.6-12.51-4.46ZM67.13,172.26l12.72,4.56L69.42,190.34l-4.34-15.87ZM59.83,163l11.69,42.65H63.19l-8-42.65Zm-6.7,0,8,42.65H52.56L48.14,163Zm-4,28.75L50.27,203l-.22-.08q-4.23-1.55-8.49-3Zm-9,9.78c3.1,1.08,6.2,2.21,9.28,3.32l1.14.42.16,1.49a1,1,0,0,0,1,.9h4.49L47.41,219l-10.24-1.19h0c-3-1.08-6.07-2.19-9.09-3.28Zm-13.5,14.6,1.81.65-2.17-.26ZM146.8,312.48a.68.68,0,0,0,0,.2v6.4L139.05,311V281.12l7.75,8.15Zm17.28-11.77a1.36,1.36,0,0,1-1.35,1.37H160a1.38,1.38,0,0,1-1.37-1.37V272.18a1.36,1.36,0,0,1,1.37-1.34h2.71a1.33,1.33,0,0,1,1.27.88v0a1.08,1.08,0,0,1,.08.44Zm13.24-23.86-.54,1.89a1.33,1.33,0,0,1-.65.83,1.31,1.31,0,0,1-1,.12l-9-2.52v-4.84l10.26,2.85A1.39,1.39,0,0,1,177.32,276.85ZM356.9,362.46l-184-118.62a1,1,0,0,0-.42-.14L2.05,223.86v-8.13l174.67,20.32L372.81,362.46ZM459.62,397.3a5.87,5.87,0,1,1,5.86-5.85A5.85,5.85,0,0,1,459.62,397.3Zm58.57-1.83a5.86,5.86,0,1,1,5.85-5.85A5.85,5.85,0,0,1,518.19,395.47Zm58.56-2a5.87,5.87,0,1,1,5.86-5.86A5.88,5.88,0,0,1,576.75,393.46Zm58.57-1.63a5.87,5.87,0,1,1,5.85-5.87A5.89,5.89,0,0,1,635.32,391.83ZM718,366.62,377.24,379.24V364.43L718,349.94Z"/></g></g></svg>