<svg xmlns="http://www.w3.org/2000/svg" viewBox="0 0 720 466.26"><g id="Layer_2" data-name="Layer 2"><g id="Layer_1-2" data-name="Layer 1"><path d="M214.06,332.43h9.39a1.13,1.13,0,0,0,1.13-1.13V319.65a1.13,1.13,0,0,0-1.13-1.13h-9.39a1.13,1.13,0,0,0-1.13,1.13V331.3A1.13,1.13,0,0,0,214.06,332.43Zm1.14-11.65h7.12v9.39H215.2Z"/><path d="M235.89,329.11h16.74a1.14,1.14,0,0,0,1.13-1.13v-8.37a1.13,1.13,0,0,0-1.13-1.13H235.89a1.13,1.13,0,0,0-1.13,1.13V328A1.14,1.14,0,0,0,235.89,329.11Zm1.13-8.37H251.5v6.11H237Z"/><path d="M720,282.51a9.83,9.83,0,0,0-5.93-9l-16-6.91a9.9,9.9,0,0,0-2.43-.69l-12.93-1.95v-11a1.11,1.11,0,0,0-.38-.85,1.26,1.26,0,0,0-.34-.21L482.54,174.28,496,119.6l16.51-7.28.34-.14s.07,0,.09,0a1,1,0,0,0,.27-.23,1.27,1.27,0,0,0,.16-.2.61.61,0,0,0,.11-.23.86.86,0,0,0,0-.27v-7.65a1.14,1.14,0,0,0-1.13-1.13H499l8-29.57h-5.27V67.23h-2.38v-9.5a2.58,2.58,0,0,0-2.56-2.58h-6a2.57,2.57,0,0,0-2.55,2.58v9.5h-2.63v-9.5a2.58,2.58,0,0,0-2.56-2.58h-6a2.57,2.57,0,0,0-2.55,2.58v9.5h-2.38v5.63h-2.31v0H457.41l-7.31,27-11.53-1.2-6-.3,5.66-11.17.06-.16.05-.07a1,1,0,0,0,0-.74,12,12,0,0,0,.07-1.34c0-6.29-3.8-11.6-9-13.14l-.2-1.1,21.18-5a1.13,1.13,0,0,0,.87-1.1V58.82a1.14,1.14,0,0,0-1.13-1.13H427.05l-3.91-22.76V26.49A1.14,1.14,0,0,0,422,25.36H406.42V20.93l13.82-5a1.12,1.12,0,0,0,.75-1.06V7.47a1.12,1.12,0,0,0-1.13-1.14h-5.52V1.13A1.15,1.15,0,0,0,413.21,0H397.37a1.14,1.14,0,0,0-1.13,1.13v5.2H390.7a1.14,1.14,0,0,0-1.13,1.14v7.37a1.16,1.16,0,0,0,.75,1.06l13.84,5v4.43H388.57a1.12,1.12,0,0,0-1.13,1.13v8.44l-3.93,22.76H382.1L369.41,29a1.14,1.14,0,0,0-1-.68H355.48v-4.8h12.46a1.14,1.14,0,0,0,1.13-1.13V5.07a1.13,1.13,0,0,0-1.13-1.13H319.46a1.13,1.13,0,0,0-1.13,1.13V22.35a1.14,1.14,0,0,0,1.13,1.13H332V28.3H325.5a1.12,1.12,0,0,0-1,.66l-16.9,38.27h-6l5-9.79,0-.09a1,1,0,0,0,.07-.73,12.75,12.75,0,0,0,.07-1.38c0-7.49-5.41-13.57-12.06-13.57s-12,6.08-12,13.57c0,.43,0,.91,0,1.27v0a1,1,0,0,0,.07.79l.07.12,4.95,9.79h-5.63a1.14,1.14,0,0,0-.34,2.22l21.83,6.83L296,93.47a1.47,1.47,0,0,0-.07.75l11,43.89H295l-64.95-13.92-60.92,0c-4.23-5.81-5.68-10.88-7.67-17.71l-.74-2.58c-.95-3.26-3.35-5.27-6.25-5.27h-59a6.45,6.45,0,0,0-4.87,2.26,6.28,6.28,0,0,0-1.4,5.09,95.93,95.93,0,0,0,7.31,24.25v0L74.17,153.58H11.47a1.33,1.33,0,0,0-.59.16L.54,160.07a1.15,1.15,0,0,0-.47,1.36L39.5,272.5a.89.89,0,0,0,.24.41V313l17.81,4.7,42.87,2.7v25.11a1.14,1.14,0,0,0,1.06,1.13l16.36,1,7.64,14.45a15.7,15.7,0,0,0,8.42,7.35l27.8,10.3c12.74,17,43.91,47.43,110.48,63.09a.11.11,0,0,0,.07,0,.67.67,0,0,0,.39.18l.25.05,102.47,23.12a1,1,0,0,0,.25,0h31a.74.74,0,0,0,.34-.05l91.53-29.4.16-.05a1.17,1.17,0,0,0,.47-.29,1.13,1.13,0,0,0,.32-.8l-.18-6.51h11a9.84,9.84,0,0,0,4.55-1.11,101.93,101.93,0,0,0,42.1-41.49,7.55,7.55,0,0,1,6.69-4.07h12a10,10,0,0,0,4.75-1.22l47.69-26.36A9.78,9.78,0,0,0,633,348l4.77-26.89a7.57,7.57,0,0,1,2.76-4.62L651,308.18a7.5,7.5,0,0,1,4.3-1.63l19.32-1,34.47-3.19a9.29,9.29,0,0,0,2.58-.59l2-.74a9.89,9.89,0,0,0,6.33-9.19h0ZM476,104.69h21.35l.93.25.07-.25H511.3V110H476Zm-1,7.65h31.94l-12.08,5.34H462.89ZM459.13,75.1h7.76l-7,25.75-7.53-.79Zm-11.19,92.3h4.7l-.43,5.66h-4.27Zm-11.42,0h9.15v5.66h-9.15Zm-2.26,0v5.66h-9.18V167.4ZM409.5,152.79,408,139.1h17.37l1.49,13.69Zm13.32,14.61v5.66h-5.49V167.4Zm-7.76-.38v5.47l-4.56-1.92v-5.45ZM449.06,60v3.62l-20.18,4.79L427.44,60ZM435.47,87.52l-5.39,10.66-7.55-.39-5.2-10.27Zm-20-59.9h5.36V33.8h-5.36Zm-9.1,0h6.84V33.8h-6.84Zm1.81,136.55h0v5.47h0l-4.59-1.92v-5.45ZM397.32,27.62h6.84V33.8h-6.84Zm-7.62,0h5.36V33.8H389.7ZM383.12,60l-1.45,8.39-20.11-4.77V60Zm-.52,42.3v18.17H355l-4.55-18.17Zm-51.28-96h25.42l-10.38,9.68a3.12,3.12,0,0,1-4.25,0Zm2,24.34h34.36L375.7,48.8h-7.37V42.64c0-2.37-5-2.62-7.17-2.62s-7.18.25-7.18,2.62V48.8h-3.86V40A1.13,1.13,0,0,0,349,38.89h-7.7A1.13,1.13,0,0,0,340.16,40V48.8h-.86a1.13,1.13,0,0,0-1.08.81l-12.74,44a.86.86,0,0,0,0,.59l17,63.11H332.11L314.37,94.42ZM289.47,69.49H319.4l-2.56,8.6Zm9.84,192.24c5,3.81,9,6.79,11.56,8.74l-21,.43c-1.2-.95-5.39-4.23-11.65-9.17h21.06Zm-3-2.26H275.37l-17.71-14H277.8Zm-21.47-16.26h-20l-17.64-14H256.4Zm-21.4-16.27H234.31l-17.54-14h18.28C241.25,217.67,247.42,222.38,253.43,226.94ZM213.82,196.7l18.28,14H213.93c-5.86-4.69-11.72-9.37-17.44-14h17.33Zm-21.08-16.27c5.78,4.48,11.86,9.18,18.13,14h-17.2c-6-4.84-11.82-9.54-17.29-14h16.36Zm-20.86-16.26h0c5.36,4.2,11.4,8.93,17.91,14h-16.2c-6.31-5.14-12.05-9.89-17-14h15.29ZM169,161.9H153.89c-5.31-4.48-9.5-8.09-12.14-10.54a46,46,0,0,1-3.39-3.46h13.5C155.39,151,161.36,155.82,169,161.9Zm-19.61-16.26h-13a72.41,72.41,0,0,1-8.66-14h11.15A55.6,55.6,0,0,0,149.42,145.64Zm-11.66-16.27h-11a101.15,101.15,0,0,1-5-14h11.08A68.55,68.55,0,0,0,137.76,129.37Zm-7-28.5a80.23,80.23,0,0,0,1.58,12.24H121.12a114.79,114.79,0,0,1-2.56-12.24ZM14.84,191.09H13L5.74,170.61h9.1Zm0-22.74H4.93l-1.31-3.69H14.84Zm14,62.05H26.94l-7.26-20.47H28.8Zm0-22.73H18.89L17.58,204H28.8Zm2.73,35.63h12V247H32.84Zm2.11,5.95H43.5v20.47H40.9Zm20.56,53.2h0L42,299.22v-8.17l12.19,3.24h0Zm10.08,1h0l-6.52,0-1.28-.33V294.9l.85.22,6.95,0h0Zm12.83,0-10.57,0v-8.26l10.57.05Zm12.84,0h0l-10.56,0h0v-8.25h0l10.56,0h0Zm10.47,0-8.21,0v-8.28l8.21.05ZM113.16,335H102.68v-7.28h10.48Zm13.31,0h-11v-7.28h11Zm13.33,0H128.73v-7.28H139.8Zm13.31,0H142.06v-7.28h11.05Zm24.76-32v4l-34-2.26v-4Zm-34-4.54v-5l34,2.26v5ZM166.43,335H155.38v-7.28h11.05Zm2.26,0v-7.28h11.07V335Zm81,45.2H226.1V374.5h23.55ZM252.19,361H194.64l-16.81-18.17H227l3.95,10.77a1.16,1.16,0,0,0,1.07.75h5.38a1.16,1.16,0,0,0,1-.63L244,342.83h15ZM182,335v-7.28h11V335Zm13.31,0v-7.28H204V335Zm62.44-19.95V335H206.24V315.08Zm-49.72-2.27v-7.6a1.56,1.56,0,0,1,1.54-1.56h8v9.16Zm11.84,0v-9.16h11.4v9.16Zm13.67,0v-9.16H245v9.16Zm13.66,0v-9.16h6.87a1.56,1.56,0,0,1,1.56,1.56v7.6Zm19.08,67.42V374.5h23.55v5.73Zm52.58-51H279.22V311.77h39.66Zm6.08,75.1h0v12h0l-4.27,5.15-10.14.3Zm-51,36.47L273.54,425l223.14-6.22.43,15.77Zm53.23-27.26V401.63l8-9.68v11.92Zm28.91-93.09H342v-9.84h14.18Zm3.49,59.07h0v11.86h0l-7.52,9.35V388.86ZM349.83,390v13.21H337.51V390Zm64.06-60.26a4.59,4.59,0,1,1,4.59-4.57A4.59,4.59,0,0,1,413.89,329.74Zm12.55,47.39V389L418,378.49V366.68Zm-10.68-13.89v14.45H372.29V363.24ZM410,349.64a2.34,2.34,0,0,1,2.33,2.33v9H375.68v-9a2.33,2.33,0,0,1,2.33-2.33Zm-36.67-19.9a4.59,4.59,0,1,1,4.59-4.57A4.59,4.59,0,0,1,373.37,329.74ZM370,366.59v11.85l-8.14,10.11V376.7Zm75.31-49.36H431.15v-9.84h14.18ZM450.81,390v13.21H438.49V390Zm-14.6-.75,0,0v11.87h0l-7.51-9.34h0V379.93h0Zm16.86,15V392.33l8,9.68v11.92Zm10.29,12.42V404.75h0l10.29,12.44-9.63.27-.66-.79Zm45.31-89.83H469V309.38h39.65Zm14.71-39.57L190.5,294.36l-121.69-8.1-9.54-18.94,127.63,8,126.86-2.67c.3.2.46.34.5.36l.29-.38,208.83-4.39Zm167.17-19.86,4.75.72a7.18,7.18,0,0,1,1.86.53l1.94.84v6.83l-1-.46a11.06,11.06,0,0,0-2.42-.68l-5.09-.76h0Zm-7.85-1.19,5.59.85v7l-5.59-.84ZM576.63,285.8v-19l103.81-12.6v19Zm132,14.32h0l-32.46,3v-11.2c.23,0,.43,0,.66,0h30.83c.32,0,.66,0,1,0h0Zm1.3-19.13-8.52-3.69v-6.83l8.52,3.68Zm2.94,17.91-1.94.73,0,0v-8.26a12.9,12.9,0,0,0,1.26-.54l4.77-2.47a7.35,7.35,0,0,1,.84,3.44A7.63,7.63,0,0,1,712.83,298.9Zm4.91-13.52-.11.06a9.71,9.71,0,0,0-3.57-2.64l-1.9-.82v-6.85l1,.44a7.57,7.57,0,0,1,4.57,6.94Z"/></g></g></svg>