<svg xmlns="http://www.w3.org/2000/svg" viewBox="0 0 720 582.39"><g id="Layer_2" data-name="Layer 2"><g id="Layer_1-2" data-name="Layer 1"><path d="M719.83,378.94a2.1,2.1,0,0,0-.24-.27l-.19-.16L409.5,101.4a1.2,1.2,0,0,0-.79-.31H320.59V70.24l11.2-15.6a1.22,1.22,0,0,0,.1-1.24,1.19,1.19,0,0,0-1.08-.64h-50.1l-.27-8.24,25-9h13.88a1.19,1.19,0,0,0,1.19-1.19V30.45a1.19,1.19,0,0,0-1.19-1.19H279.89l-.23-8,25.74-9.22h14a1.19,1.19,0,0,0,1.19-1.19V7a1.19,1.19,0,0,0-1.19-1.19H279.13L279,1.15A1.19,1.19,0,0,0,277.79,0h-3.17a1.17,1.17,0,0,0-1.2,1.15l-.14,4.63H233A1.19,1.19,0,0,0,231.8,7v3.92A1.19,1.19,0,0,0,233,12.08h13.95l25.79,9.22-.26,8H233a1.19,1.19,0,0,0-1.19,1.19v3.92A1.19,1.19,0,0,0,233,35.56h13.88l25.05,9-.26,8.24h-57.8a1.18,1.18,0,0,0-1.07.64,1.22,1.22,0,0,0,.09,1.24l11.54,16,0,0,7.4,24.62v37.42L90.2,283.24V281a7,7,0,0,0-7-7H48.55a7,7,0,0,0-7,7V335L.36,378.7l0,.05a1,1,0,0,0-.15.19,1.25,1.25,0,0,0,0,1.19l18.77,35.56,0,0a.84.84,0,0,0,.12.42l18,34.2A1.19,1.19,0,0,0,38,451l.24,0,159.32,16.74c9.48,3.27,24.12,8.67,40.67,16.14-.12.34-.24.67-.33,1-.24.72-.46,1.43-.67,2.1a8.87,8.87,0,0,0,2.7,9.44L261.31,515a8.92,8.92,0,0,0,11.8-.12l8.93-8c37,22.49,62.89,47.69,76.88,74.89a1.18,1.18,0,0,0,2.13,0c14-27.2,39.86-52.42,76.9-74.92l8.95,8a9,9,0,0,0,6,2.29A8.87,8.87,0,0,0,458.7,515l21.42-18.51A8.88,8.88,0,0,0,482.8,487l-1-3.16c13.23-6,26.87-11.41,40.57-16.14L681.73,451h.17a1.16,1.16,0,0,0,1.05-.65l18-34.2a1.08,1.08,0,0,0,.12-.45l18.77-35.56A1.18,1.18,0,0,0,719.83,378.94ZM599,332.53,612,347.6l-4.44,3.82-13-15.09Zm-28.69-33.38,13,15.09-4.44,3.8-13-15.07Zm-28.65-33.41,12.94,15.11-4.44,3.82-12.95-15.09ZM513,232.37l13,15.1-4.46,3.82-12.92-15.1ZM484.33,199l12.94,15.09-4.44,3.82-12.95-15.09ZM455.67,165.6l12.94,15.09-4.44,3.85-13-15.12ZM427,132.23l12.95,15.07-4.44,3.83-12.88-15,0-.14Zm-24.69-28.75,9,10.46-4.44,3.82-12.25-14.28Zm-16.53,0,179.38,253.2H546.35L383.26,103.48ZM361.62,374.9l-4.94.38-.39-5.18,4.95-.38Zm-1.12-14.62-4.92.39-.41-5.19,4.94-.38Zm-1.1-14.61-4.95.36-.38-5.19,4.92-.35ZM358.28,331l-4.92.38-.41-5.18,4.92-.36Zm-1.13-14.62-4.92.39-.38-5.19,4.92-.36Zm-1.1-14.61-4.91.38-.41-5.18,4.92-.38Zm-1.12-14.62-4.92.36-.38-5.16,4.92-.38Zm-1.1-14.64-4.92.38-.4-5.15,4.92-.39Zm-1.12-14.61-4.92.38-.38-5.16,4.92-.38Zm-1.1-14.62-4.92.38-.4-5.18,4.92-.36Zm-1.12-14.64-4.92.38-.38-5.16,4.92-.38Zm-1.1-14.59-4.92.36-.4-5.16,4.92-.38Zm-1.12-14.62-4.92.36-.38-5.16,4.92-.38Zm-1.1-14.64-4.94.39-.39-5.19,4.92-.38Zm-1.12-14.61-4.92.36-.41-5.16,4.95-.39ZM345,155.59,340,156l-.39-5.18,4.92-.38ZM343.83,141l-4.95.38-.4-5.21,5-.36Zm-1.13-14.62-4.94.36-.38-5.18,4.94-.39Zm-1.5-19.82.41,5.18-4.95.38-.4-5.18Zm-30.43-51.4h17.72L318.68,68.8h-7.91Zm-25,176.44v-4.53A1.24,1.24,0,0,1,287,225.8h25.22a1.24,1.24,0,0,1,1.24,1.25v4.53Zm27.7,2.39v4.54a1.23,1.23,0,0,1-1.24,1.22H287a1.23,1.23,0,0,1-1.24-1.22V234Zm-25.7-69.06V147.83l4.09-6.71v13.95Zm15.48-68.69v7.12H292V96.22ZM292,85.5V78.36h11.23V85.5Zm12.66,66.87v-11l6.5-.93v11ZM296.4,55.14h12V68.8h-12Zm-14.4,0h12V68.8H282Zm9.14,57.75a10,10,0,0,1,1.13,19.87V120.87a1.19,1.19,0,0,0-1.2-1.2h-9.36A9.94,9.94,0,0,1,291.14,112.89Zm-1.26,9.17v13.61H268.65V122.06Zm-10.8-25.84v7.12H267.86V96.22ZM267.86,85.5V78.36h11.22V85.5Zm.12,71h5.4a4.25,4.25,0,0,1,4.22,4.22v9H263.75v-9A4.25,4.25,0,0,1,268,156.48Zm-.36-101.34h12V68.8h-12Zm-14.4,0h12V68.8h-12ZM255,96.22v7.12H243.74V96.22ZM243.74,85.5V78.36H255V85.5Zm11.2,39.5h7.28v16h-7.28ZM238.87,55.14h12V68.8h-12Zm-6.81,114.57v-21H242.4v21ZM226,68.8l-9.81-13.66h20.3V68.8Zm-182.07,225c5.61-.38,13.54-.62,22-.62s16.31.24,21.92.62v7c-5.68-.4-13.56-.62-21.92-.62s-16.27.22-22,.62Zm0,49.53c5.63-.38,13.56-.62,22-.62s16.31.24,21.92.62v7c-5.68-.4-13.56-.62-21.92-.62s-16.27.22-22,.62Zm109.61,94.27a5.8,5.8,0,1,1,5.78-5.81A5.81,5.81,0,0,1,153.53,437.57Zm157.77,0a5.8,5.8,0,1,1,5.8-5.81A5.8,5.8,0,0,1,311.3,437.57ZM360,497.75c-11.4,0-19.9-3.3-19.9-6.26s8.5-6.23,19.9-6.23,19.87,3.3,19.87,6.23S371.36,497.75,360,497.75Zm48.71-60.18a5.8,5.8,0,1,1,5.81-5.81A5.81,5.81,0,0,1,408.71,437.57Zm155.74,0a5.8,5.8,0,1,1,5.8-5.81A5.81,5.81,0,0,1,564.45,437.57Zm146.09-44.93H9.45L3.17,380.75H716.82Z"/></g></g></svg>