<svg xmlns="http://www.w3.org/2000/svg" viewBox="0 0 720 183.47"><g id="Layer_2" data-name="Layer 2"><g id="Layer_1-2" data-name="Layer 1"><path d="M720,55.46l-.27,0V54a.87.87,0,0,0-.9-.85l-5.75.34,3.76-5.36a.91.91,0,0,0,.15-.72l-.48-1.89a.81.81,0,0,0-.45-.55.83.83,0,0,0-.72,0l-5.25,2.27-5.25-2.27a.83.83,0,0,0-.72,0,.86.86,0,0,0-.45.55l-.47,1.89a.82.82,0,0,0,.13.7l3.79,5.38-5.81-.34a.87.87,0,0,0-.83.62l-4.41-.39v-.62a.86.86,0,0,0-.88-.86l-5.77.34,3.76-5.36a.82.82,0,0,0,.15-.72l-.48-1.89a.79.79,0,0,0-.44-.55.83.83,0,0,0-.72,0l-5.26,2.27-5.25-2.27a.83.83,0,0,0-.72,0,.87.87,0,0,0-.44.55l-.47,1.88a.91.91,0,0,0,.13.72l3.78,5.37-.69,0-10.37-.91a.88.88,0,0,0-.87-.64l-3.68.22L666,50.67l3.57-5.08a.83.83,0,0,0,.13-.72L669.21,43a.87.87,0,0,0-.46-.55.84.84,0,0,0-.71,0l-5.25,2.27-5.25-2.27a.87.87,0,0,0-1.18.57l-.46,1.88a.83.83,0,0,0,.13.72l3.15,4.48-16.3-1.44,3-4.28a.91.91,0,0,0,.15-.72l-.48-1.88a.87.87,0,0,0-.44-.56.83.83,0,0,0-.72,0l-5.26,2.26-5.26-2.28a.88.88,0,0,0-.71,0,.82.82,0,0,0-.45.56l-.47,1.87a.78.78,0,0,0,.14.7l2.51,3.6-15.1-1.34,2.43-3.48a.87.87,0,0,0,.15-.72l-.47-1.88a.84.84,0,0,0-1.17-.57l-5.25,2.26-5.26-2.26a.81.81,0,0,0-.71,0,.77.77,0,0,0-.45.56l-.48,1.87a.83.83,0,0,0,.14.71l1.87,2.67-9.84-.87-2.46-2.63.28-.4a.85.85,0,0,0,.15-.72l-.48-1.88a.8.8,0,0,0-.45-.56.9.9,0,0,0-.72,0l-1.5.66-9.93-10.64a13.21,13.21,0,0,0-10.85-4.16c-4.47.44-11.43,2.76-12.27,12.84a.85.85,0,0,0-.78.64l-.46,1.89a.83.83,0,0,0,.12.69l.6.85-8.71-.77-1.93-1.51a.65.65,0,0,0,0-.51l-.46-1.89a.9.9,0,0,0-.45-.56.83.83,0,0,0-.72,0l-1.44.62L530.65,23l1-1.39a.92.92,0,0,0,.15-.74L531.3,19a.8.8,0,0,0-.45-.56.83.83,0,0,0-.72,0l-3.44,1.48-15.31-12,0,0a.82.82,0,0,0,.15-.72l-.47-1.89a.82.82,0,0,0-.45-.56.86.86,0,0,0-.72,0l-1.71.74L505.06,3H163.89l0,.08-28.08,6.1V4.76h2.89a2.39,2.39,0,0,0,2.39-2.38A2.39,2.39,0,0,0,138.66,0h-7.13a2.39,2.39,0,0,0-2.39,2.38,2.39,2.39,0,0,0,2.39,2.38h2.88V9.42l-7.86,1.71-1.52.34-19.34,4.21h-.1L51.64,21.17l-.29,0L49,24.36H30.44L25.9,17.63H15.77V31.92L8.21,30.66,0,91.62l5.59,14.67v9.09l69,6,1.16,18.44a5.39,5.39,0,1,0,9.58,3.48l2.48-18,9.63,36.12h9v-.84h25.71a.71.71,0,0,0,.11.21.81.81,0,0,0,.61.36l5.7.55,3.5,4.54a.79.79,0,0,0,.64.32l0,0a.85.85,0,0,0,.63-.29l1.32-1.41a.81.81,0,0,0,.22-.68l-.38-3.62h4.3l.3.19a.82.82,0,0,0,1-.19h26.31l1.35,2.32h0l.14.23,3.39,5.85h23.25l4.14-7.18,1.6-.69,5.26,2.28a.81.81,0,0,0,.72,0,.87.87,0,0,0,.44-.55l.48-1.89a.69.69,0,0,0,0-.35h12.32a1,1,0,0,0,0,.35l.48,1.89a.89.89,0,0,0,.45.55.9.9,0,0,0,.72,0l5.25-2.28,5.26,2.28a1,1,0,0,0,.33.07.8.8,0,0,0,.38-.1.83.83,0,0,0,.45-.55l.47-1.88a.63.63,0,0,0,0-.36h12.34a.6.6,0,0,0,0,.35l.48,1.89a.79.79,0,0,0,.44.55.9.9,0,0,0,.72,0l5.26-2.28,5.25,2.28a1,1,0,0,0,.34.07.9.9,0,0,0,.38-.1.92.92,0,0,0,.45-.55l.47-1.89a.69.69,0,0,0,0-.35h69.8l2.39,5.13H346v8a5.54,5.54,0,1,0,7.06,0v-8h3.78l2.39-5.13h13.92L427.61,176l57.65,0,68-53.2,9.23-.82c-.93,13.6,7.24,16.49,12.27,17q.6.06,1.23.06a13.29,13.29,0,0,0,9.62-4.22l15.11-16.21,27.77-2.47.1.19a.82.82,0,0,0,.76.46H633a.86.86,0,0,0,.85-.89v-.23l25.69-2.28a8.59,8.59,0,0,0,2.63.38,10.05,10.05,0,0,0,1.66-.13l1.37,2.69a.85.85,0,0,0,.76.46h3.65a.86.86,0,0,0,.86-.89l-.21-3.48,2.76-.26h0l2.46,1.74a.93.93,0,0,0,.73.15l1.87-.47a.86.86,0,0,0,.57-.45.9.9,0,0,0,0-.72l-.31-.71L720,108ZM516.6,28l6.31.37A.86.86,0,0,0,523.6,27l-4.24-6,.27-1.08L524.55,22a1,1,0,0,0,.67,0l4.91-2.13.27,1.08-4.23,6a.84.84,0,0,0-.08.89.86.86,0,0,0,.8.47l6.27-.36v2.81l-5.85,3a.84.84,0,0,0-.45.9,11.53,11.53,0,0,1-.57,4.64c0-5.16-.5-10.87-.69-12.84l-.11-.65-1.27,0-.06.61c-.19,1.95-.66,7.63-.69,12.77a11.2,11.2,0,0,1-.56-4.57.85.85,0,0,0-.45-.9l-5.86-3Zm-36.29,84.25,26,4.06-.8,7.65-26-4.06ZM453,107.94,479,112l-.82,7.66-26-4.08Zm16.31,28.78-.39,2.49-30.65-4.83.38-2.48Zm-43.66-33.07h0l26,4.08-.81,7.65-26-4.07h0Zm-27.32-4.27,26,4.07-.8,7.66-26-4.08Zm7.24,27.32-.39,2.48-30.66-4.81.39-2.49ZM371,95.1l26,4.08-.81,7.64-26-4.08Zm-27.33-4.27,26,4.06-.8,7.65-26-4.07ZM316.3,86.55l26,4.06-.8,7.66h0l-26-4.08Zm25.53,30.13-.38,2.49-30.66-4.82.39-2.48ZM289,82.26l26,4.08-.8,7.64-26-4.06h0ZM261.64,78l26,4.07-.8,7.64h0l-26-4.07Zm-14.59,26.33.38-2.48,30.66,4.83-.39,2.47Zm19.08,20.17-.88,6.4L239.33,127h0l.9-6.42,25.91,3.94ZM234.29,73.71l26,4.07-.81,7.65h0l-26-4.08Zm-51,20.59.4-2.47,30.66,4.81-.4,2.49Zm28.27,21.92-.88,6.41-23.33-3.54h0l.89-6.41Zm1.35.21,25.92,3.92h0l-.88,6.42L212,122.83Zm-3.36-46.59L233,73.5l-.8,7.65-23.39-3.66Zm-27.33-4.27,26,4.06-.81,7.64-26-4.06ZM156.66,20.11,164.73,4.3h12.16l-8.47,16.28V37.19H156.66Zm-1.77,41.17,26,4.07L180.08,73l-26-4.07ZM127.56,57l26,4.08-.8,7.64-26-4.07Zm23.06,29.62-.38,2.48-30.67-4.81.4-2.49Zm-50.4-33.89,26,4.07-.8,7.64-26-4.07ZM72.88,48.45l26,4.06-.79,7.64h0l-26-4.07Zm14,28.15-.39,2.49L55.84,74.27l.39-2.48ZM71.54,48.24l-.8,7.64-26-4.07.8-7.63ZM23.15,66.59l-.39,2.48-2.63-.41.41-2.48Zm-.76,27.48-6.2-.93,1-6.4,6.06.91Zm2.22-53.18L44.21,44l-.8,7.64-20-3.13Zm25,57.32L23.74,94.28l.88-6.42,25.92,3.93Zm1.35.21L51.89,92l25.94,3.93-.89,6.42ZM79.9,147.24a4,4,0,1,1,4-4.05A4,4,0,0,1,79.9,147.24Zm24.31-40.76-25.92-3.93h0l.9-6.42,25.91,3.94h0Zm23.71,41-5.33-3.38a.88.88,0,0,0-.91,0,.85.85,0,0,0-.37.8l.8,7.34-.76.82-3.27-4.24a.85.85,0,0,0-.6-.32l-5.32-.52.29-1.08,6.62-3.23a.82.82,0,0,0,.5-.74.86.86,0,0,0-.47-.8l-5.66-2.71L114.8,137l6.57.2a.84.84,0,0,0,.82-.56,12,12,0,0,1,2.76-3.8c-2.48,4.54-4.82,9.78-5.62,11.58l-.22.63,1.13.58.35-.52c.79-1.16,4.17-6.16,6.8-10.87a11.79,11.79,0,0,1-1.73,4.32.83.83,0,0,0,0,1l3.68,5.46Zm3.56-36.81-25.93-3.94.89-6.41,25.92,3.93h0Zm17.86,48.64L144,155.9a.82.82,0,0,0-.89,0,.83.83,0,0,0-.37.8l.79,7.34-.76.81-3.27-4.23a.9.9,0,0,0-.59-.33l-5.33-.51.3-1.09,6.61-3.21a.86.86,0,0,0,.5-.75.85.85,0,0,0-.48-.8l-5.66-2.72,1.37-2.47,6.57.22a.91.91,0,0,0,.83-.57,11.7,11.7,0,0,1,2.73-3.76c-2.58,4.74-5,10.25-5.59,11.54l-.23.62,1.14.59.34-.51c.8-1.16,4.15-6.15,6.78-10.83a11.09,11.09,0,0,1-1.72,4.26.89.89,0,0,0,0,1l3.67,5.45Zm9.42-44.5-25.94-3.94h0l.89-6.42,25.94,3.94Zm1.33.2.89-6.42,25.93,3.94-.88,6.4L160.1,115Zm32.4,38.8-6.31-.36a.82.82,0,0,0-.76.47.84.84,0,0,0,.06.87l4.25,6-.27,1.08-4.9-2.12a1,1,0,0,0-.35-.07.83.83,0,0,0-.34.07l-4.9,2.12-.27-1.08,4.22-6a.86.86,0,0,0-.72-1.37l-6.27.36v-2.82l5.85-3a.83.83,0,0,0,.46-.88,11.56,11.56,0,0,1,.56-4.6c0,5.14.5,10.83.69,12.78l.11.66h.61l.66,0,.06-.63c.19-2,.66-7.65.69-12.81a11.82,11.82,0,0,1,.57,4.63.81.81,0,0,0,.45.88l5.85,3Zm26.12,0-6.31-.36a.83.83,0,0,0-.76.47.8.8,0,0,0,.07.87l4.24,6-.28,1.08-4.9-2.12a1,1,0,0,0-.34-.07.72.72,0,0,0-.33.07l-4.92,2.12-.27-1.08,4.24-6a.86.86,0,0,0-.72-1.37l-6.27.36v-2.82l5.85-3a.83.83,0,0,0,.44-.88,6.29,6.29,0,0,1-.06-.88,14.36,14.36,0,0,1,.63-3.74c0,5.39.56,11.41.7,12.8l.09.66h.61l.67,0,.06-.63c.19-2,.67-7.61.7-12.75a11.3,11.3,0,0,1,.55,4.57.83.83,0,0,0,.45.88l5.86,3Zm26.12,0-6.31-.36a.83.83,0,0,0-.76.47.84.84,0,0,0,.06.87l4.25,6-.27,1.08-4.9-2.12a1.09,1.09,0,0,0-.35-.07,1,1,0,0,0-.34.07l-4.9,2.12-.27-1.08,4.22-6a.86.86,0,0,0-.72-1.37l-6.27.36v-2.82l5.85-3a.85.85,0,0,0,.46-.88,6.71,6.71,0,0,1-.07-.91,13.4,13.4,0,0,1,.63-3.66c0,5.14.5,10.8.69,12.77l.11.65,1.27-.06.06-.61c.19-2,.66-7.62.69-12.77a11.93,11.93,0,0,1,.57,4.59.81.81,0,0,0,.45.88l5.85,3Zm26.13,0-6.32-.36a.83.83,0,0,0-.76.47.8.8,0,0,0,.07.87l4.24,6-.28,1.08-4.89-2.12a1.09,1.09,0,0,0-.34-.07.77.77,0,0,0-.34.07l-4.92,2.12-.27-1.08,4.24-6a.86.86,0,0,0-.72-1.37l-6.27.36v-2.82l5.85-3a.83.83,0,0,0,.44-.88,11.93,11.93,0,0,1,.57-4.59c0,5.15.51,10.82.7,12.77l.09.66h.63l.65,0,.07-.63c.19-2,.66-7.61.69-12.75a11.13,11.13,0,0,1,.55,4.57.85.85,0,0,0,.45.88l5.87,3ZM292.5,135l-25.91-3.93h0l.9-6.41,25.91,3.94h0Zm27.28,4.14-25.92-3.93h0l.88-6.41,25.94,3.94Zm27.27,4.13-25.91-3.92h0L322,133l25.92,3.94Zm27.27,4.14-25.91-3.92h0l.88-6.41L375.21,141Zm27.28,4.14-25.94-3.94.9-6.4,25.92,3.93Zm27.27,4.14-25.93-3.94.89-6.4,25.93,3.93Zm27.26,4.12-25.92-3.92.9-6.4L457,153.45ZM483.42,164l-25.94-3.93.89-6.39,25.93,3.93ZM496,165.9l-11.24-1.71.88-6.39L503,160.43Zm23.89-18.68L502,144.4l.4-2.48,20.22,3.17Zm13-19h0l-26-4.07.8-7.66,26,4.08Zm9.43,1.48-8.09-1.28.8-7.65,15.58,2.44ZM647.41,53.57l-5.85,3a.84.84,0,0,0-.46.88,11.56,11.56,0,0,1-.55,4.62c0-5.16-.51-10.85-.7-12.8l-.1-.65-1.28,0-.06.61c-.18,1.95-.66,7.63-.69,12.77a11.88,11.88,0,0,1-.57-4.59.82.82,0,0,0-.45-.88l-5.84-3V50.75l6.31.36a.85.85,0,0,0,.69-1.34l-4.25-6,.27-1.08,4.9,2.11a.83.83,0,0,0,.69,0l4.9-2.11.27,1.08-4.22,6a.86.86,0,0,0,.72,1.37l6.27-.36Zm23.66,1.25-5.86,3a.85.85,0,0,0-.45.9,6.3,6.3,0,0,1,.07.89,13.67,13.67,0,0,1-.63,3.68c0-5.16-.51-10.82-.7-12.77l-.1-.65-1.27,0-.06.61c-.19,1.95-.68,7.63-.7,12.78a11.46,11.46,0,0,1-.56-4.58.86.86,0,0,0-.45-.9l-5.86-3V52l6.31.36a.84.84,0,0,0,.77-.47.87.87,0,0,0-.06-.87l-4.25-6,.27-1.09L662.45,46a.81.81,0,0,0,.68,0l4.9-2.12L668.3,45l-4.23,6a.89.89,0,0,0-.08.9.85.85,0,0,0,.8.47h0l3-.17h0l3.24-.19Zm23.64,1.25-5.85,3a.83.83,0,0,0-.44.88,12,12,0,0,1-.57,4.66c0-5.16-.51-10.88-.7-12.84l-.09-.66-1.28,0-.06.61c-.19,1.95-.67,7.64-.7,12.78a11.53,11.53,0,0,1-.55-4.6.86.86,0,0,0-.45-.88l-5.86-3V53.25l4.19.24.31,0v0l1.81.11a.83.83,0,0,0,.76-.46.82.82,0,0,0-.07-.88l-4.24-6,.28-1.09,4.9,2.12a.86.86,0,0,0,.67,0l4.92-2.12.27,1.09-4.24,6a.85.85,0,0,0,.72,1.36l6.27-.36Zm23.66,1.25-5.85,3a.87.87,0,0,0-.45.89,11.66,11.66,0,0,1-.57,4.63c0-5.16-.5-10.86-.69-12.83l-.11-.65-1.27,0-.06.61c-.19,2-.66,7.63-.69,12.78a11.38,11.38,0,0,1-.56-4.58.83.83,0,0,0-.46-.89l-5.85-3V54.49l6.31.37a.82.82,0,0,0,.76-.47.8.8,0,0,0-.06-.87l-4.25-6,.27-1.09,4.93,2.13a.89.89,0,0,0,.66,0l4.91-2.12.28,1.09-4.24,6a.86.86,0,0,0,.72,1.37l6.27-.37Z"/></g></g></svg>