<svg xmlns="http://www.w3.org/2000/svg" viewBox="0 0 720 381.36"><g id="Layer_2" data-name="Layer 2"><g id="Layer_1-2" data-name="Layer 1"><path d="M719.21,288.42l-51.28-5.13v-6.78H617.61v3c-21.08-3-54.11-4.37-68.41-4.85h0c-.75-.42-1.51-.84-2.27-1.28-1.74-.93-3.46-1.92-5.18-2.92-1.53-.88-3.08-1.77-4.6-2.71-1.73-1-3.47-2.07-5.17-3.14q-2.22-1.35-4.41-2.78c-1.72-1.1-3.45-2.21-5.13-3.37-1.11-.7-2.18-1.44-3.27-2.18l-1-.69q-2.56-1.76-5.07-3.55c-1.38-1-2.77-2-4.16-3-1.65-1.19-3.3-2.44-4.92-3.69-1.39-1-2.74-2.09-4.1-3.16-1.61-1.27-3.21-2.53-4.78-3.83-1.37-1.11-2.7-2.22-4-3.32-1.57-1.32-3.11-2.62-4.62-4-1.34-1.16-2.67-2.32-4-3.48-1.51-1.35-3-2.7-4.44-4.06s-2.62-2.42-3.9-3.65c-1.45-1.39-2.87-2.76-4.26-4.15s-2.58-2.55-3.83-3.83-2.74-2.79-4.11-4.25-2.5-2.64-3.71-4-2.6-2.82-3.87-4.25-2.47-2.79-3.67-4.2-2.49-2.9-3.71-4.32l-3.58-4.34q-1.8-2.22-3.52-4.41c-1.17-1.51-2.33-3-3.48-4.5s-2.26-3-3.35-4.47-2.27-3.12-3.36-4.65-2.16-3-3.2-4.57-2.16-3.17-3.2-4.73-2.07-3.13-3.05-4.66-2.06-3.23-3-4.81l-.51-.81c-.81-1.35-1.64-2.69-2.43-4s-1.49-2.53-2.2-3.76l-.65-1.11c-1-1.7-1.89-3.35-2.77-5s-1.83-3.3-2.66-4.87c-.93-1.79-1.82-3.49-2.65-5.13s-1.67-3.37-2.41-4.9c-.91-1.93-1.74-3.71-2.46-5.33-.84-1.88-1.56-3.51-2.14-4.92-.53-1.23-.93-2.25-1.27-3.07h24.5a.86.86,0,0,0,.77-.46l11.78-22a.9.9,0,0,0-.21-1.11.89.89,0,0,0-1.13,0L418.22,94.32H363.67a32.55,32.55,0,0,0-15-8.59,49.69,49.69,0,0,0-12.22-1.5H315.06l.56-5.5c20.93-.65,20.93-2.48,20.93-3.34V27.92l-.8-.07c-6.44-.61-16.44-1-27.53-1.14V7.05h5.47a2.18,2.18,0,0,0,2.18-2.16V2.16A2.18,2.18,0,0,0,313.69,0h-20a2.18,2.18,0,0,0-2.18,2.16V4.89a2.18,2.18,0,0,0,2.18,2.16h5.47V26.71c-10.55,0-20.46.35-27.51.86l-.82.07V69.49h-7.6a.87.87,0,0,0-.87.77l-1.46,14h-3.61a.87.87,0,0,0-.86.7l-10.93,55.4H233.94a.87.87,0,0,0-.88.88v32.84l-.28.13-.56.22-.81.34-4.87,2-1.32.53c-1.19.47-2.37.95-3.53,1.4L218.51,180l-1.64.65c-1,.36-2,.75-2.9,1.14l-.63.24-6.22,2.41-1.3.51h0l-8.41,3.2c-1.76.68-3.47,1.32-5.1,1.91l-4.68,1.73-5.22,1.91-5.87,2.09c-.52.2-1,.37-1.51.53a37,37,0,0,0-19.87-5.75h-53.3V141.21a1,1,0,0,0-.32-.69.84.84,0,0,0-.72-.17,15.69,15.69,0,0,0-9.3,5.43c-.47.59-.91,1.23-1.35,1.84a13.1,13.1,0,0,1-2.83,3.31,14.82,14.82,0,0,1-2.43,1.38,9.66,9.66,0,0,0-4.09,3,11,11,0,0,0-1,2.06,4.25,4.25,0,0,1-1.44,2.34,5.29,5.29,0,0,1-1.42.42,4.39,4.39,0,0,0-2.6,1.16c-1.44,1.55-.53,3.87-.14,4.87l3.86,9.65c.14.38.6,1.52,1.71,1.56A1.83,1.83,0,0,0,81.63,176c.08-.27.14-.53.19-.79a2.71,2.71,0,0,1,.1-.51c.3-.86,1.59-1.21,2.62-1.36h.18c1.39-.21,3.13-.48,4.09-1.87a4.89,4.89,0,0,0,.67-1.61c.09-.25.14-.49.25-.74a5,5,0,0,1,3.86-2.76c1.39-.25,4,.23,5.91.58l.58.11v23.47H.45l-.12.74c-.11.62-2.39,15.43,6.76,35,8.42,17.92,28.58,43.26,76.82,62.17,10.79,4.24,24.18,10.21,31.79,18.83,14.18,16,29.24,43.67,29,73.21v.9l487.36-4.75c18.26-.18,35.55-7.63,47.46-20.44,10.46-11.28,16.37-25.43,17.58-42.11l22.12-3.19A.91.91,0,0,0,720,310V289.3A.9.9,0,0,0,719.21,288.42ZM316.13,73.85c10.35.35,15.15,1.1,17.31,1.63-2.51.55-8.1,1.18-17.62,1.49Zm-256,156.54H53.05v-5.92h7.12Zm39.86,5H85.14l-9.51-10.92h33.9Zm32.09-5H125v-5.92h7.12Zm409.19,41.87c1.33.79,2.69,1.56,4,2.28l-3.16-.07-4.64-.11ZM393.21,106.87c.32.81.76,1.91,1.32,3.27-1,1.28-2.07,2.6-3.09,3.9l-1,1.23,6.65.77c.61,1.35,1.3,2.83,2,4.43-1,1.35-2,2.71-3,4.08l-.89,1.26,6.74.51c.69,1.35,1.43,2.78,2.2,4.25l-3.8,5.59,6.95.23c.72,1.32,1.49,2.69,2.28,4.1l-3.57,5.76h7l2.18,3.6.21.37-3.42,6,7.06-.27c.81,1.27,1.64,2.53,2.5,3.82l-3.25,6.11,7-.49c.85,1.25,1.72,2.48,2.62,3.74l-3,6.21,7-.7c.92,1.21,1.83,2.44,2.78,3.67l-2.81,6.29,6.92-1c.95,1.2,1.9,2.41,2.9,3.62l-2.6,6.33,1.55-.25c1.77-.28,3.53-.58,5.32-.89,1,1.17,2,2.37,3,3.56l-2.37,6.37,1.53-.32c1.72-.33,3.48-.7,5.22-1.07,1,1.18,2.11,2.35,3.18,3.53l-2.15,6.38,6.65-1.6q1.63,1.74,3.37,3.48l-1.91,6.4,6.48-1.81c1.16,1.14,2.32,2.28,3.52,3.42l-1.69,6.37,6.36-2c1.21,1.14,2.46,2.27,3.71,3.39l-1.48,6.29,1.48-.47c1.56-.51,3.18-1.07,4.74-1.62,1.27,1.09,2.55,2.2,3.87,3.31l-1.27,6.23,1.46-.52c1.57-.56,3.1-1.11,4.64-1.72h0c1.3,1.07,2.65,2.16,4,3.21l-1.05,6.22,5.95-2.42c1.37,1,2.76,2.09,4.15,3.09l-.86,6.26,5.89-2.6c1.38,1,2.81,2,4.23,3L516,263l5.81-2.81q2.14,1.44,4.31,2.83l-.49,6.34,5.8-3c1.42.89,2.88,1.79,4.32,2.63-.11,1.65-.18,3.29-.25,4.92v.37l-111.72-2.7q-4.1-.06-8.1-.2V219.89a.86.86,0,0,0-.27-.62l-24-24.48V154a.82.82,0,0,0-.87-.88H378.75V141L373,111.67a30.37,30.37,0,0,0-1.34-4.8Zm-46.34,56.95H389.7V181.1H346.87Zm-6.22-7.36-8.12-1.16,17.19-7.75h3.37v3.3Zm13-41.4,19.12,4.48,1,4.9L354,119.85Zm12.69-8.91,4,2.16c.26.82.49,1.65.7,2.49l-8.43-2C363.79,107.94,365.06,107,366.29,106.15Zm5.08,6.55,1,4.94-16.87-4c.79-.51,1.57-1,2.32-1.57h0l5.1,2.9-.48-4.41Zm-31.18-7.31,18.1,4.25-1.05.72q-2,1.41-4.13,2.78l-12.92-3Zm0,6.52,10.88,2.55c-.76.51-1.51,1-2.27,1.49l-.28.18c-.93.61-1.84,1.19-2.79,1.79h0l-5.52-1.3Zm0,6.52,3.41.81-.23.14c-1,.65-2.11,1.3-3.18,2Zm-10.07,29.12h15.33l-15.33,6.89Zm-4.46,20.79h10v4.31h-10ZM338,201.05v6.08H327.34v-6.08Zm-12.3-18.19h10v4.29h-10Zm-9.37,18.19v6.08h-10.6v-6.08ZM305,187.15v-4.29h10v4.29Zm10-14.5H305v-4.31h10Zm-53.3-78.89H312.3l-.63,6.1H261.06Zm-1.64,15.73h50.62l-.51,4.92H259.54Zm34.27,73.37v4.29h-10v-4.29Zm-10-10.21v-4.31h10v4.31Zm10.3,28.4v6.08H284v-6.08Zm-11.19-60.72V129.26h19.38v11.07Zm-19.77,46.82v-4.29h10v4.29Zm9.29,13.9v6.08H262.36v-6.08Zm-9.29-28.4v-4.31h10v4.31ZM243,182.86h10v4.29H243Zm-2.3,18.19H251.3v6.08H240.69Zm-31.07,17.82c-18.88-10.3-28.79-18.05-29.05-18.26a34.48,34.48,0,0,0-3.75-3.08l.28-.1.81-.29,4.5,4.49,1.06-6.47,4.23-1.55,4.69,4.55,1-6.64h0l.07,0,4-1.52,4.81,4.61,1-6.8,4-1.53,5,4.6.88-6.85,1.55-.6,2.35-1h0l5,4.57.81-6.9c1.25-.51,2.53-1,3.83-1.55l5.17,4.55.72-6.94.49-.21v18.19H209.62Zm20-17.82v6.08H219v-6.08ZM290,235.17H273.66V220.76H290Zm59.31-15.85L346,219H211.37v-4.66H345.9L414,220.69v4.66l-64.62-6h0Zm58.95,7.26v16.54a3.46,3.46,0,0,1-3.46,3.46h-2.27V226Zm-31.88,12H353.3v-17.1l36.33,3.39Zm24.39,8h-2.27a3.46,3.46,0,0,1-3.44-3.46V225.35l5.71.53Zm222.66,93c-97.39-7.14-203-8.67-210.25-8.76l-11.34-12.88c17.66.27,149.35,2.5,252.07,12.38Zm36.84-21.92-30.46-10.37,12.11.5h.19l67.51,2.72Z"/><path d="M358.63,168.2h-7.19a.88.88,0,0,0-.88.88v7.2a.88.88,0,0,0,.88.88h7.19a.87.87,0,0,0,.87-.88v-7.2A.87.87,0,0,0,358.63,168.2Z"/><path d="M371.26,168.2h-7.19a.89.89,0,0,0-.87.88v7.2a.89.89,0,0,0,.87.88h7.19a.88.88,0,0,0,.88-.88v-7.2A.88.88,0,0,0,371.26,168.2Z"/><path d="M385.57,168.2h-8.84a.88.88,0,0,0-.88.88v7.2a.88.88,0,0,0,.88.88h7.19a.89.89,0,0,0,.86-.68l1.65-7.19a.87.87,0,0,0-.86-1.09Z"/></g></g></svg>