<svg xmlns="http://www.w3.org/2000/svg" viewBox="0 0 720 312.24"><g id="Layer_2" data-name="Layer 2"><g id="Layer_1-2" data-name="Layer 1"><path d="M717.16,101.54c-7.81-11.16-31.87-13.56-71.51-7.12C533.35,112.65,467.8,110,440.73,107.18l17.44-6.28a.77.77,0,0,0,.5-.81.79.79,0,0,0-.67-.68l-23.34-2.72,12.79-3.63a.8.8,0,0,0,.55-.83.75.75,0,0,0-.72-.67l-12-.77h0L225.07,74.45l.19-1.51a.81.81,0,0,0-.23-.64.76.76,0,0,0-.64-.22L215,73.32l-4.8-11.88a.72.72,0,0,0-.59-.47l-.1,0-1-.15,10.12-4.74a.75.75,0,0,0,.44-.76l-.48-4.7-.59-6a.75.75,0,0,0-.84-.69l-30.26,3L173.62,20a.73.73,0,0,0-.77-.41l-5.24.52-1.44-2.72,12.52-1.26a.76.76,0,0,0,.61-1.1L171.86.42a.8.8,0,0,0-.77-.42L135.55,3.55A.8.8,0,0,0,135,4a.77.77,0,0,0,0,.72l7.45,14.63a.75.75,0,0,0,.68.42h.08l1.67-.17-.89,3-4.86.49a.73.73,0,0,0-.66.56l-4.66,17.73v0l-11.67,1.16-10.74,1.07a.76.76,0,0,0-.69.84L111.92,57h0l-.12,0h0l-4.53.46a.82.82,0,0,0-.58.36.8.8,0,0,0,0,.69l2.5,5.89a.75.75,0,0,0,.7.47h.08l4.51-.45h0L128,63.06l-.86,3.24s0,0,0,.06L127,67l-20.72,2.08h0L97.64,52.18a.54.54,0,0,0-.09-.12l0,0-1.31-4,11.91-3.87a.75.75,0,0,0,.52-.79l-.22-2.16a.74.74,0,0,0-.82-.69L94.2,41.89l-2.41-7.31a.79.79,0,0,0-.81-.52l-3.38.34-1.46-3.81a1,1,0,0,0,.28-.75v-.1L86,25.21a1.14,1.14,0,0,0-1.25-1L79,24.77l-.24-2.54,3.75-.37a.73.73,0,0,0,.59-.39.8.8,0,0,0,0-.71L81,16.36a.75.75,0,0,0-.76-.43L69.86,17a.8.8,0,0,0-.59.38.83.83,0,0,0,0,.72l2.14,4.4a.73.73,0,0,0,.69.43h.08l2.08-.2.24,2.52-5.73.58a1,1,0,0,0-.77.42,1.07,1.07,0,0,0-.26.82l.46,4.54a1.1,1.1,0,0,0,.54.86v4a1,1,0,0,0-.16.12.84.84,0,0,0-.16.57l1.72,17.35-3.85.38.61-7.43v-.07s0-.09,0-.14A5.25,5.25,0,0,0,61,42.61a5.51,5.51,0,0,0-3.64,1.85,5,5,0,0,0-1.24,3.79.66.66,0,0,0,.05.15h0l2.11,7.23-.21,0L54.26,56l-2.57-5.66a.78.78,0,0,0-.77-.44l-18,1.8a.76.76,0,0,0-.59.37.79.79,0,0,0,0,.7l4.54,10.05-2.78.27a.77.77,0,0,0-.58.39.7.7,0,0,0,0,.7L35,67.4l-9.37.94a.78.78,0,0,0-.52.27.79.79,0,0,0-.17.57l.29,2.89a.76.76,0,0,0,.63.67l12.75,2.37,6.55,14L.69,93.54a.68.68,0,0,0-.5.28.74.74,0,0,0-.19.55l1.49,14.78a.77.77,0,0,0,.42.61l51.86,25.35,5.41,15.5,137,69.68a216.85,216.85,0,0,0,53.5,18.86c256.49,54,332.16,72.59,332.89,72.77l1.33.32-.43-1.31c-10.36-31.82,30.38-71.32,66.44-98.88h0A.29.29,0,0,0,650,212a556.91,556.91,0,0,1,55.39-37.09.75.75,0,0,0,.38-.62l1-19.83A53.81,53.81,0,0,1,713.52,131C720.69,118.25,721.92,108.34,717.16,101.54Zm-500.68-56,.44,4.45-2.84.29-.44-4.46Zm-4.37.43.44,4.47-3.5.33-.44-4.45ZM38.46,62.7h0l-4.31-9.56,3.73-.37,4.31,9.54ZM54,84l-2.2-5.78,5.28-.53.6,5.94Zm-4.9-14.93L49,67.53l9-.89.23,4.13ZM59.24,83.5l-.6-6L64.71,77l.6,5.93Zm154.17-8.44h0l10.17-1.34L222,87.11l-8.07,1.08-1.3-13ZM215,118l10.61,1.54-.44,3-10.3-1.5Zm-5.18-13.27L209,96.28,218.42,95l-2.09,8.82Zm1.29-29.35,1.31,13h0l-9.5,1.29-1.3-13.06ZM191.84,91.16l-1.3-13.07,9.51-1.27,1.31,13.06ZM197,106.45h0l-9.77,1.31-.85-8.5,9.78-1.3Zm.67-8.69,9.8-1.28.84,8.45-9.8,1.32-.86-8.49Zm9.43-51.28.46,4.44-3.52.36-.44-4.45Zm-5,.5.44,4.45-3.5.35-.44-4.45Zm-5,.51.44,4.44-3.5.36-.44-4.45ZM192,48l.46,4.47-2.82.27-2.09-4.28ZM179.5,79.54,189,78.29l1.32,13.07-9.53,1.28-1.31-13.1ZM185.68,108h0l-9.78,1.31h0l-.84-8.53,9.8-1.3ZM178,79.74l1.32,13.1-9.54,1.29L168.43,81Zm-3.62,29.75-8.27,1.12-2.23-8.38,9.64-1.27Zm-7.43-28.28,1.32,13.11-9.53,1.29L157.4,82.46Zm-11,1.45,1.32,13.15-8.07,1.08-4.25-12.78Zm-7.35,15.85h.17l8-1.07,2.46,9.69-27.39,2.74-2.92-9.37ZM110.3,63.29l-1.88-4.4,3-.31v0l1.85,4.4Zm3.13-6.45L112.25,45l9.22-.93,1.2,11.86Zm10.75-1.07L123,43.91l10.32-1-3.23,12.29Zm3,44.7,2.86,9.19-8.36-1.84-2.85-9.18Zm-29-26.86.1,1.1a.79.79,0,0,0,.55.66l9.68,2.7-.08.49L97.2,79.69l-.6-5.91ZM107,42.13l.07.8L95.74,46.6l-1.07-3.23ZM95.07,73.93h0l.58,5.92-6.07.61L89,74.53ZM70.25,32.52l14.44-1.45L86,34.57l-2.63.26-6.72.67-6.42.63ZM70,37.7l6.07-.61,1.66,16.59-6.07.61Zm-3.17,45-.58-5.93,6.07-.62.58,5.94Zm7.6-.77L73.82,76l6.07-.6.6,5.94Zm13.07-7.29.6,5.93L82,81.22l-.6-5.93Zm178.45,78.39h-.11L149.11,164.72l-67.51-30L91.85,133,147.77,157l.18.07,116.9-11.68,307,52.39.17,0h.09A3.1,3.1,0,0,1,574,199c.95,1.15,2.06,3.45,2.54,8Zm-9.19-25.94.44-3,28.57,4.18-.43,3Zm60.18,8.78.43-3L346,137.08l-.45,3Zm60.19,8.77.43-3,28.58,4.18-.44,3Zm60.17,8.77.44-3,28.57,4.17-.43,3Zm60.18,8.78.43-3,28.59,4.18-.45,3Zm88.76,12.93L557.66,171l.43-3,28.58,4.16Zm55.69-11.86-418.68-61,2.12-8.19c11.5,1.57,162.92,22.33,200,23.62,4.51.17,9.58.24,15.12.24,42.48,0,112-4.55,160.25-12.41,35.91-5.84,54.09-6.44,62.49-6.12l-23.72,6.93c-11.31-2.22-27.61-1.45-50.23,2.23-104.48,17-168.28,15.75-197,13.52l-.21,0h0c-15.06-1.19-22.32-2.77-22.4-2.78l-.32,1.5c.08,0,7.51,1.62,22.79,2.82h0l255.64,36.94Zm5.3-54.65h0a32.07,32.07,0,0,0-4.68-1.61L691.69,92.7h0c2.54.22,4.88.51,7,.92Z"/></g></g></svg>