<svg xmlns="http://www.w3.org/2000/svg" viewBox="0 0 720 206.62"><g id="Layer_2" data-name="Layer 2"><g id="Layer_1-2" data-name="Layer 1"><path d="M719.87,162.46,709,150.23l.3-.2c.79-.54,1.1-.68,1.4-.44a3.11,3.11,0,0,1,.63,1.13,8.94,8.94,0,0,0,.44.93.63.63,0,0,0,.78.3c1.16-.45,2.46-7.65,2.12-9.16a.5.5,0,0,0-.32-.37,21.51,21.51,0,0,0-3.51-.89l-.43-.08a6.09,6.09,0,0,0-2.41-.1,4.71,4.71,0,0,0-.68.2,4.51,4.51,0,0,1-.65.17,3.18,3.18,0,0,1-1.42-.39,6.91,6.91,0,0,0-1-.35,2.34,2.34,0,0,0-1.61.05.5.5,0,0,0-.33.47v1.28l-2.73-3.06V128.07c.44-.74.63-.74.67-.72s.4.32.56.51l.24.27a3.12,3.12,0,0,0,3.82.73,7,7,0,0,0,.64-.42c.79-.53,1.11-.66,1.39-.43a3,3,0,0,1,.64,1.13,8.67,8.67,0,0,0,.44.92.62.62,0,0,0,.56.36h.1c1-.16,1.72-3.92,2-5.53a12.41,12.41,0,0,0,.23-3.66.49.49,0,0,0-.31-.37,22.26,22.26,0,0,0-3.63-.93l-.31,0a6.07,6.07,0,0,0-2.42-.09,5.69,5.69,0,0,0-.68.18,4.88,4.88,0,0,1-.65.19,3.17,3.17,0,0,1-1.41-.39,7.75,7.75,0,0,0-1-.36,2.49,2.49,0,0,0-1.6,0,.53.53,0,0,0-.33.48v3.47a.22.22,0,0,0,0,.08v8h0v7.09l-9.76-10.93V116.16c.44-.75.64-.75.67-.73s.4.32.56.51a3.32,3.32,0,0,1,.25.27,3.1,3.1,0,0,0,3.8.73c.22-.12.44-.28.66-.42.78-.54,1.1-.67,1.39-.43a3.11,3.11,0,0,1,.65,1.14,6.47,6.47,0,0,0,.43.92.63.63,0,0,0,.56.35h.1c.93-.17,1.65-3.54,2-5.53a12.06,12.06,0,0,0,.24-3.68.53.53,0,0,0-.31-.36,21.55,21.55,0,0,0-3.4-.88l-.56-.11a6.28,6.28,0,0,0-2.41-.08,5,5,0,0,0-.68.19,4.6,4.6,0,0,1-.64.18,3.28,3.28,0,0,1-1.43-.39,7,7,0,0,0-1-.36,2.36,2.36,0,0,0-1.62.06.5.5,0,0,0-.32.47v18.51L678,115.58V104.22c.44-.74.63-.73.67-.71s.39.31.57.51a2.84,2.84,0,0,0,.24.26,3.1,3.1,0,0,0,3.8.73,5.82,5.82,0,0,0,.65-.41c.78-.53,1.1-.67,1.4-.44a3.08,3.08,0,0,1,.63,1.12,8.33,8.33,0,0,0,.45,1,.65.65,0,0,0,.56.35h.1c1-.17,1.72-3.92,2-5.53a12.82,12.82,0,0,0,.24-3.67A.53.53,0,0,0,689,97a21.61,21.61,0,0,0-3.41-.87l-.55-.11a6.23,6.23,0,0,0-2.4-.08,6.5,6.5,0,0,0-.69.19,4.51,4.51,0,0,1-.63.18,3.67,3.67,0,0,1-1.44-.39,5.78,5.78,0,0,0-.95-.36,2.53,2.53,0,0,0-1.61,0,.51.51,0,0,0-.33.48v18.37l-1.12-1.26a.49.49,0,0,0-.38-.17H641.19L610.43,94.24a.45.45,0,0,0-.27-.08h-26.3l.06-.13L509,65.85l-.11,0L505,64.33h0L420.24,32.47l-.61-6.23a.49.49,0,0,0-.49-.46h0l-21.9.15-1.44-13.87h2.47a.51.51,0,0,0,.39-.17.53.53,0,0,0,.12-.41l-1.51-11a.52.52,0,0,0-.51-.44H386.39a.52.52,0,0,0-.51.44l-1.51,11a.53.53,0,0,0,.12.41.51.51,0,0,0,.39.17h2.47l-1.44,14-2.48,0a.51.51,0,0,0-.5.46l-.62,6.31-69.8,23.08h-.05l-3.95,1.31-.09,0L240.21,79.79H203.33a.57.57,0,0,0-.22,0L180.07,90H22.64a.56.56,0,0,0-.37.15l-6.33,6.6h0a.51.51,0,0,0-.22.42v6.36H10.44a.48.48,0,0,0-.37.15l-6.42,6.61-.08.07a.5.5,0,0,0-.15.36v26.57H.51a.52.52,0,0,0-.48.33.54.54,0,0,0,.13.56c.12.1,11.45,10.35,31.77,23.17,18.62,11.76,17.2,26.25,17.19,26.39a.52.52,0,0,0,.12.39.47.47,0,0,0,.35.17l269.24,18.32H684.09c5.74,0,10.41-7.23,10.41-16.12v-6.38h25a.52.52,0,0,0,.36-.14.53.53,0,0,0,.15-.36V162.86A.49.49,0,0,0,719.87,162.46ZM553.05,83.52l-2.36,5.7-.34-6.72ZM421.76,34.13l.42,7.9h-1l-.82-8.43ZM416.4,50.61h5.69V60.94H416.4Zm0,17.6h5.69V78.55H416.4Zm-9.95-17.6h5.68V60.94h-5.68Zm0,17.6h5.68V78.55h-5.68Zm-9.95-17.6h5.68V60.94H396.5Zm0,17.6h5.68V78.55H396.5ZM436,85.79v5.46H367.3V85.79ZM422.34,99.08v10.51h-4.93V99.08Zm-12.45,0v10.51H405V99.08Zm-12.45,0v10.51h-4.93V99.08Zm-12.45,0v10.51h-4.93V99.08Zm-8.13-20.53,1.19-10.34h5.7l-1.21,10.34ZM381,34.3l1.16-.39-.83,8.38h-1Zm-.94,16.31h5.68l-1.2,10.33H378.9ZM267.77,71.75l2.85-.94,2.93,8a.49.49,0,0,0,.47.34h.08a.51.51,0,0,0,.43-.46l.8-9.46,2.82-.92,3,8a.5.5,0,0,0,.48.33h.06a.49.49,0,0,0,.44-.46l.8-9.46,2.82-.94,2.94,8a.52.52,0,0,0,.48.33h.07a.5.5,0,0,0,.44-.46l.81-9.48,2.8-.91,2.94,8a.52.52,0,0,0,.48.33h.07a.51.51,0,0,0,.44-.45l.82-9.45,2.81-.93,2.93,8a.5.5,0,0,0,.48.34h.07a.49.49,0,0,0,.44-.46l.81-9.45,2.82-.92,2.94,8a.51.51,0,0,0,.48.34h.06a.51.51,0,0,0,.44-.47l.82-9.45,2.82-.94,2.93,8a.5.5,0,0,0,.47.32h.07a.5.5,0,0,0,.44-.46l.82-9.45,2.82-.94,2.93,8a.5.5,0,0,0,.47.34h.08a.51.51,0,0,0,.43-.46l.83-9.47,2.8-.93,2.94,8a.5.5,0,0,0,.48.33h.07a.5.5,0,0,0,.44-.46l.79-9.45,2.83-.94,2.94,8a.51.51,0,0,0,.48.34H342a.51.51,0,0,0,.45-.47l.8-9.44,2.84-.93,2.93,8a.48.48,0,0,0,.47.33h.07a.51.51,0,0,0,.44-.45l.8-9.45,2.84-.94,2.92,8a.52.52,0,0,0,.48.34h.07a.5.5,0,0,0,.44-.46l.8-9.45,2.85-.93,2.92,8a.51.51,0,0,0,.48.34h.07a.52.52,0,0,0,.43-.47l.8-9.45,2.83-.94,2.94,8a.51.51,0,0,0,.48.32h.06a.5.5,0,0,0,.45-.46l.79-9.47,2.82-.92,2.36,6.42h-2.35a.51.51,0,0,0-.51.44l-5.56,42h-3.45a.5.5,0,0,0-.5.51v8.88H277.06V90.49a.51.51,0,0,0-.51-.51h-1.7l-4.93-9.91a.49.49,0,0,0-.45-.28h-2.36Zm-7.54,2.49,2.84-.94,2.35,6.49h-5.66Zm-7.56,2.5,2.85-.93,1.45,4h-4.55Zm-7.55,2.5,2.82-.93.55,1.48h-3.41Zm-1,.35,0,.2h-.6Zm-67.81,99.32H161.45V168.26a.51.51,0,0,0-.51-.51H126.59V163.2l13.22-3.34h22.31a.5.5,0,0,0,.45-.27.51.51,0,0,0,0-.52L156.41,150a.59.59,0,0,0-.38-.23L3.21,139.45,1.85,138.3H158.31l18,24.64Zm29.4-26.71H192.2v-6.41h13.47Zm23.46,0H215.66v-6.41h13.47Zm23.45,0H239.11v-6.41h13.47Zm23.46,0H262.57v-6.41H276Zm23.46,0H286v-6.41H299.5Zm34.43,30.38H316.14V163.29h17.79ZM309.49,152.2v-6.41H323v6.41Zm36.92,0H332.94v-6.41h13.47Zm25.16,38.18L367.3,189V175.39h4.27ZM356.39,152.2v-6.41h13.47v6.41Zm19.54,38.36h-3.34V175.39h3.34Zm5.14-1.53-4.13,1.34v-15h4.13Zm12.25-36.83H379.85v-6.41h13.47Zm23.45,0H403.3v-6.41h13.47Zm23.46,0H426.76v-6.41h13.47Zm16.64-14.92H177.49l3.85-11.5H456.87Zm11.61-57.5a.53.53,0,0,0-.31-.37,20.46,20.46,0,0,0-3.4-.87l-.56-.12a6.5,6.5,0,0,0-2.41-.09,6.73,6.73,0,0,0-.69.21,2.07,2.07,0,0,1-2.07-.22,8.41,8.41,0,0,0-1-.36,2.4,2.4,0,0,0-1.61.05.51.51,0,0,0-.33.47V94.16h-15.8V86.63c.38-.64.57-.7.64-.7h0c.14,0,.4.3.57.51l.24.26a3.14,3.14,0,0,0,3.82.72c.2-.11.42-.26.64-.4.77-.53,1.11-.68,1.39-.45a3.17,3.17,0,0,1,.64,1.14,9,9,0,0,0,.44.94.62.62,0,0,0,.55.33h.11c1-.17,1.72-3.92,2-5.52a11.72,11.72,0,0,0,.24-3.67.51.51,0,0,0-.31-.37,20.22,20.22,0,0,0-3.4-.87l-.55-.12a6.5,6.5,0,0,0-2.41-.09,6,6,0,0,0-.69.21,3.49,3.49,0,0,1-.65.17,3,3,0,0,1-1.41-.39,9.52,9.52,0,0,0-1-.36,2.4,2.4,0,0,0-1.61.05.5.5,0,0,0-.32.47V82a.17.17,0,0,0,0,.07v8h0v4.11H437V85.28a.51.51,0,0,0-.51-.51h-4.13l-5.61-42.29a.5.5,0,0,0-.5-.45H423.9l2.53-6.14L429.25,37l.48,9.41a.52.52,0,0,0,.43.48h.08a.52.52,0,0,0,.48-.31l3.21-7.83,2.83,1.06.49,9.41a.5.5,0,0,0,.42.47h.09a.5.5,0,0,0,.46-.31l3.21-7.82,2.82,1.06.51,9.4a.49.49,0,0,0,.42.47h.09a.51.51,0,0,0,.47-.31l3.21-7.8,2.82,1.06.48,9.42a.51.51,0,0,0,.42.47h.09a.5.5,0,0,0,.47-.31l3.21-7.83,2.84,1.07.48,9.41a.52.52,0,0,0,.43.47h.08a.54.54,0,0,0,.48-.31L464,50l2.82,1.06.48,9.43a.5.5,0,0,0,.43.47h.08a.5.5,0,0,0,.47-.31l3.24-7.83,2.81,1.05.48,9.42a.51.51,0,0,0,.43.47h.08a.5.5,0,0,0,.47-.31L479,55.65l2.83,1.06.49,9.4a.49.49,0,0,0,.42.47h.09a.52.52,0,0,0,.47-.31l3.2-7.81,2.82,1.06.49,9.43a.49.49,0,0,0,.42.46h.09a.51.51,0,0,0,.47-.31L494,61.29l2.84,1.06.47,9.42a.53.53,0,0,0,.43.46h.08a.52.52,0,0,0,.48-.31l3.22-7.81,2.83,1.06.48,9.43a.53.53,0,0,0,.43.48h.08a.52.52,0,0,0,.47-.32L509,66.94,511.79,68l.49,9.42a.52.52,0,0,0,.43.48h.08a.52.52,0,0,0,.47-.32l3.22-7.82,2.83,1.06.49,9.41a.52.52,0,0,0,.41.48h.09a.51.51,0,0,0,.47-.32L524,72.58l2.82,1.06.51,9.43a.5.5,0,0,0,.42.48h.09a.53.53,0,0,0,.47-.32l3.21-7.83,2.81,1.06.48,9.41a.54.54,0,0,0,.43.48h.08a.54.54,0,0,0,.48-.32L539,78.23l2.82,1.06.49,9.44a.51.51,0,0,0,.42.47h.08a.5.5,0,0,0,.47-.32l3.22-7.84,2.81,1.06.49,9.43a.5.5,0,0,0,.43.47h.08a.53.53,0,0,0,.47-.32L554,83.87l2.83,1.06.48,9.23H507.65V86.64c.44-.74.63-.72.66-.71s.4.3.57.51l.25.26a3.09,3.09,0,0,0,3.8.72,7.6,7.6,0,0,0,.65-.4c.78-.53,1.1-.67,1.4-.45a3.16,3.16,0,0,1,.63,1.14c.14.33.28.64.44.94a.64.64,0,0,0,.56.33h.1c1-.17,1.73-3.92,2-5.52a12.36,12.36,0,0,0,.24-3.67.52.52,0,0,0-.32-.37,20.46,20.46,0,0,0-3.4-.87l-.56-.12a6.44,6.44,0,0,0-2.4-.09,6,6,0,0,0-.69.21,2.07,2.07,0,0,1-2.07-.22,8.41,8.41,0,0,0-.95-.36A2.4,2.4,0,0,0,507,78a.5.5,0,0,0-.33.47V94.16h-15.8V86.63c.38-.64.57-.7.64-.7h0c.13,0,.4.3.57.51l.24.26a3.13,3.13,0,0,0,3.81.72c.21-.11.43-.26.65-.4.77-.53,1.11-.68,1.39-.45a3.32,3.32,0,0,1,.64,1.14,7.34,7.34,0,0,0,.44.94.62.62,0,0,0,.55.33h.11c1-.17,1.72-3.92,2-5.52a11.72,11.72,0,0,0,.24-3.67.51.51,0,0,0-.31-.37,20.32,20.32,0,0,0-3.41-.87l-.54-.12a6.5,6.5,0,0,0-2.41-.09,6.2,6.2,0,0,0-.7.21,2,2,0,0,1-2.06-.22,8.56,8.56,0,0,0-1-.36,2.4,2.4,0,0,0-1.61.05.49.49,0,0,0-.32.47V82a.17.17,0,0,0,0,.07v8h0v4.11H474V86.63c.44-.73.63-.71.66-.7s.4.3.57.51l.25.26a3.11,3.11,0,0,0,3.8.72,7.6,7.6,0,0,0,.65-.4c.78-.53,1.11-.68,1.39-.45a3,3,0,0,1,.64,1.14,9,9,0,0,0,.44.94A.63.63,0,0,0,483,89h.1c1-.17,1.72-3.92,2-5.52a11.69,11.69,0,0,0,.23-3.67.49.49,0,0,0-.31-.37,20.11,20.11,0,0,0-3.39-.87l-.56-.12a6.5,6.5,0,0,0-2.41-.09,5.49,5.49,0,0,0-.69.21,3.63,3.63,0,0,1-.64.17,3.42,3.42,0,0,1-1.43-.39,8.56,8.56,0,0,0-1-.36,2.37,2.37,0,0,0-1.6.05.51.51,0,0,0-.33.47V94.16H457.17V86.64c.44-.74.63-.72.66-.71s.4.3.57.51l.25.26a3.12,3.12,0,0,0,3.81.72c.21-.11.42-.26.65-.4.77-.53,1.1-.67,1.39-.45a3,3,0,0,1,.63,1.14c.15.33.28.64.44.94a.64.64,0,0,0,.56.33h.1c1-.17,1.73-3.92,2-5.52A12,12,0,0,0,468.48,79.78Zm8.28,70.76-.09-.22a3.73,3.73,0,0,0-.94-1.52,1.38,1.38,0,0,0-.91-.34,3.22,3.22,0,0,0-1.69.72,5.48,5.48,0,0,1-.57.37A2.11,2.11,0,0,1,470,149l-.21-.23a2,2,0,0,0-1.22-.85,1.13,1.13,0,0,0-.77.18v-2.65a1.54,1.54,0,0,1,.63.06,7.68,7.68,0,0,1,.87.31,3.93,3.93,0,0,0,1.9.46,4.82,4.82,0,0,0,.87-.22c.19-.06.37-.12.58-.17a5.4,5.4,0,0,1,2,.11l.2,0a20.54,20.54,0,0,1,2.92.68A26.58,26.58,0,0,1,476.76,150.54Zm1.17-4.83A26,26,0,0,0,475,145l-.28-.05a6.17,6.17,0,0,0-2.35-.08c-.21,0-.44.12-.66.19a5.2,5.2,0,0,1-.66.18,3.32,3.32,0,0,1-1.41-.38,6.46,6.46,0,0,0-1-.36,2.6,2.6,0,0,0-.91-.1v-2.54a1.75,1.75,0,0,1,.63.06c.28.08.55.2.86.32a2.91,2.91,0,0,0,2.78.24,5.36,5.36,0,0,1,.57-.17,5.59,5.59,0,0,1,2,.1l.42.08a21.06,21.06,0,0,1,3.06.76A11.53,11.53,0,0,1,477.93,145.71Zm15.65,4.83a2,2,0,0,0-.08-.22,3.84,3.84,0,0,0-.94-1.52,1.39,1.39,0,0,0-.92-.34,3.29,3.29,0,0,0-1.69.72,4.59,4.59,0,0,1-.57.37,2.09,2.09,0,0,1-2.58-.55l-.22-.23a2,2,0,0,0-1.22-.85,1.13,1.13,0,0,0-.77.18v-2.65a1.58,1.58,0,0,1,.64.06,6.92,6.92,0,0,1,.86.31,4,4,0,0,0,1.91.46,4.82,4.82,0,0,0,.87-.22l.57-.17a5.44,5.44,0,0,1,2,.11l.19,0a20.35,20.35,0,0,1,2.93.68A26.39,26.39,0,0,1,493.58,150.54Zm1.18-4.83a26.16,26.16,0,0,0-2.92-.68l-.27-.05a6.17,6.17,0,0,0-2.35-.08c-.22,0-.45.12-.67.19a5.1,5.1,0,0,1-.65.18,3.32,3.32,0,0,1-1.42-.38,6,6,0,0,0-1-.36,2.46,2.46,0,0,0-.92-.1v-2.54a1.58,1.58,0,0,1,.64.06c.27.08.55.2.85.32a2.93,2.93,0,0,0,2.79.24,4.74,4.74,0,0,1,.57-.17,5.52,5.52,0,0,1,2,.1l.42.08a21.19,21.19,0,0,1,3.07.76A11.53,11.53,0,0,1,494.76,145.71Zm15.65,4.83a2,2,0,0,1-.08-.22,3.84,3.84,0,0,0-.94-1.52,1.42,1.42,0,0,0-.92-.34,3.32,3.32,0,0,0-1.7.72,3.87,3.87,0,0,1-.56.37,2.09,2.09,0,0,1-2.58-.55l-.22-.23a2,2,0,0,0-1.22-.85,1.13,1.13,0,0,0-.77.18v-2.65a1.58,1.58,0,0,1,.64.06,7.43,7.43,0,0,1,.85.31,4,4,0,0,0,1.91.46,5,5,0,0,0,.87-.22l.57-.17a5.43,5.43,0,0,1,2,.11l.19,0a21.23,21.23,0,0,1,2.94.68A26.39,26.39,0,0,1,510.41,150.54Zm1.18-4.83a26.69,26.69,0,0,0-2.92-.68l-.27-.05a6.19,6.19,0,0,0-2.35-.08c-.22,0-.45.12-.67.19a5.2,5.2,0,0,1-.66.18,3.47,3.47,0,0,1-1.41-.38,5.86,5.86,0,0,0-1-.36,2.31,2.31,0,0,0-.9-.1v-2.54a1.52,1.52,0,0,1,.63.06,9,9,0,0,1,.85.32,4.16,4.16,0,0,0,1.92.47,4,4,0,0,0,.86-.23c.2-.06.38-.13.58-.17a5.57,5.57,0,0,1,2,.1l.42.08a21.86,21.86,0,0,1,3.07.76A11.53,11.53,0,0,1,511.59,145.71Zm15.65,4.83-.09-.22a3.73,3.73,0,0,0-.94-1.52,1.41,1.41,0,0,0-.92-.34,3.29,3.29,0,0,0-1.69.72,4,4,0,0,1-.57.37,2.09,2.09,0,0,1-2.58-.55l-.22-.23a2,2,0,0,0-1.21-.85,1.13,1.13,0,0,0-.77.18v-2.65a1.54,1.54,0,0,1,.63.06,7.55,7.55,0,0,1,.86.31,4,4,0,0,0,1.91.46,4.71,4.71,0,0,0,.86-.22l.58-.17a5.45,5.45,0,0,1,2,.11l.19,0a20,20,0,0,1,2.93.68A28,28,0,0,1,527.24,150.54Zm1.17-4.83a26.53,26.53,0,0,0-2.91-.68l-.28-.05a6.18,6.18,0,0,0-2.35-.08c-.21,0-.44.12-.66.19a5.69,5.69,0,0,1-.66.18,3.32,3.32,0,0,1-1.41-.38,6.2,6.2,0,0,0-1-.36,2.55,2.55,0,0,0-.9-.1v-2.54a1.77,1.77,0,0,1,.63.06c.27.08.55.2.85.32a4.13,4.13,0,0,0,1.92.47,4,4,0,0,0,.86-.23c.2-.06.38-.13.57-.17a5.62,5.62,0,0,1,2,.1l.42.08a21.38,21.38,0,0,1,3.06.76A11.53,11.53,0,0,1,528.41,145.71Zm15.65,4.83a2,2,0,0,0-.08-.22,3.84,3.84,0,0,0-.94-1.52,1.41,1.41,0,0,0-.92-.34,3.29,3.29,0,0,0-1.69.72,4.59,4.59,0,0,1-.57.37,2.09,2.09,0,0,1-2.58-.55,2.39,2.39,0,0,1-.22-.23,2,2,0,0,0-1.22-.85,1.13,1.13,0,0,0-.77.18v-2.65a1.6,1.6,0,0,1,.64.06,6.8,6.8,0,0,1,.85.31,4,4,0,0,0,1.92.46,4.71,4.71,0,0,0,.86-.22l.57-.17a5.5,5.5,0,0,1,2,.11l.19,0a21.29,21.29,0,0,1,2.92.68A25.31,25.31,0,0,1,544.06,150.54Zm1.18-4.83a26.53,26.53,0,0,0-2.91-.68l-.28-.05a6.18,6.18,0,0,0-2.35-.08c-.22,0-.45.12-.67.19a5.6,5.6,0,0,1-.65.18,3.32,3.32,0,0,1-1.42-.38,6.09,6.09,0,0,0-1-.36,2.39,2.39,0,0,0-.91-.1v-2.54a1.6,1.6,0,0,1,.64.06c.26.08.55.2.84.32a4.17,4.17,0,0,0,1.93.47,4.72,4.72,0,0,0,.86-.23c.19-.06.38-.13.57-.17a5.58,5.58,0,0,1,2,.1l.42.08a21.52,21.52,0,0,1,3.07.76A11.53,11.53,0,0,1,545.24,145.71Zm15.65,4.83a2,2,0,0,1-.09-.22,3.72,3.72,0,0,0-.93-1.52,1.42,1.42,0,0,0-.92-.34,3.32,3.32,0,0,0-1.7.72,4.5,4.5,0,0,1-.56.37,2.09,2.09,0,0,1-2.58-.55,2.39,2.39,0,0,1-.22-.23,2,2,0,0,0-1.22-.85,1.11,1.11,0,0,0-.77.18v-2.65a1.6,1.6,0,0,1,.64.06,7.43,7.43,0,0,1,.85.31,4,4,0,0,0,1.91.46,4.71,4.71,0,0,0,.86-.22l.58-.17a5.44,5.44,0,0,1,2,.11l.19,0a20.77,20.77,0,0,1,2.93.68A25.31,25.31,0,0,1,560.89,150.54Zm1.18-4.83a26.33,26.33,0,0,0-2.93-.68l-.26-.05a6.18,6.18,0,0,0-2.35-.08c-.23,0-.45.12-.67.19a4.88,4.88,0,0,1-.67.18,3.47,3.47,0,0,1-1.4-.38,6.2,6.2,0,0,0-1-.36,2.31,2.31,0,0,0-.9-.1v-2.54a1.54,1.54,0,0,1,.63.06,9,9,0,0,1,.85.32,2.89,2.89,0,0,0,2.78.24c.2-.06.38-.13.58-.17a5.58,5.58,0,0,1,2,.1l.42.08a22.21,22.21,0,0,1,3.07.76A11.53,11.53,0,0,1,562.07,145.71Zm-3.64-51.55,3.08-7.47,2.83,1.07.33,6.4ZM569,89.52l2.82,1.06.17,3.58h-4.9Zm8.71,61-.1-.22a3.72,3.72,0,0,0-.93-1.52,1.41,1.41,0,0,0-.92-.34,3.29,3.29,0,0,0-1.69.72,4.59,4.59,0,0,1-.57.37,2.11,2.11,0,0,1-2.59-.55,2.2,2.2,0,0,1-.2-.23,2,2,0,0,0-1.22-.85,1.11,1.11,0,0,0-.77.18v-2.65a1.55,1.55,0,0,1,.63.06,7.55,7.55,0,0,1,.86.31,4,4,0,0,0,1.91.46,4.71,4.71,0,0,0,.86-.22l.58-.17a5.46,5.46,0,0,1,2,.11l.19,0a19.63,19.63,0,0,1,2.92.68A26.77,26.77,0,0,1,577.72,150.54Zm1.17-4.83A26.16,26.16,0,0,0,576,145l-.27-.05a6.18,6.18,0,0,0-2.35-.08c-.22,0-.44.12-.66.19a5.29,5.29,0,0,1-.67.18,3.31,3.31,0,0,1-1.4-.38,6.57,6.57,0,0,0-1-.36,2.31,2.31,0,0,0-.9-.1v-2.54a1.77,1.77,0,0,1,.63.06c.27.08.55.2.85.32a4.1,4.1,0,0,0,1.92.47,4,4,0,0,0,.86-.23c.19-.06.38-.13.57-.17a5.65,5.65,0,0,1,2,.1l.41.08a21.52,21.52,0,0,1,3.07.76A11.53,11.53,0,0,1,578.89,145.71Zm-3.13-51.55.75-1.82,2.82,1.06,0,.76Zm4.63,0,0-.37,1,.37Zm113,48.28.43.08a21.38,21.38,0,0,1,3.06.76,11.53,11.53,0,0,1-.18,2.43c-.53-.17-1.07-.3-1.6-.42l-2.67-3C692.72,142.33,693,142.39,693.36,142.44Zm3.13,4.28a.59.59,0,0,0,0,.13l-.19-.19A.73.73,0,0,1,696.49,146.72Zm-10-4.83a1.78,1.78,0,0,1,.64.06c.27.08.55.2.85.32a2.93,2.93,0,0,0,2.79.24l.35-.11,2.28,2.57a6,6,0,0,0-2.28-.07c-.22,0-.45.12-.67.19a5.1,5.1,0,0,1-.65.18,3.36,3.36,0,0,1-1.42-.38,6,6,0,0,0-1-.36,2.44,2.44,0,0,0-.92-.1Zm0,3.56a1.58,1.58,0,0,1,.64.06,6.92,6.92,0,0,1,.86.31,4,4,0,0,0,1.91.46,4.82,4.82,0,0,0,.87-.22l.57-.17a5.44,5.44,0,0,1,2,.11l.2,0,1,.18,1.66,1.85a19.14,19.14,0,0,1-.7,2.47,2,2,0,0,0-.08-.22,3.84,3.84,0,0,0-.94-1.52,1.38,1.38,0,0,0-.91-.34,3.22,3.22,0,0,0-1.69.72,6.78,6.78,0,0,1-.57.37,2.1,2.1,0,0,1-2.59-.55l-.21-.23a2,2,0,0,0-1.23-.85,1.13,1.13,0,0,0-.77.18Zm-16.82-3.56a1.75,1.75,0,0,1,.63.06c.28.08.55.2.86.32a2.91,2.91,0,0,0,2.78.24,5.36,5.36,0,0,1,.57-.17,5.58,5.58,0,0,1,2,.1l.42.08a21.06,21.06,0,0,1,3.06.76,10.89,10.89,0,0,1-.18,2.43,26,26,0,0,0-2.91-.68l-.28-.05a6.17,6.17,0,0,0-2.35-.08c-.21,0-.43.12-.66.19a5.2,5.2,0,0,1-.66.18,3.32,3.32,0,0,1-1.41-.38,6.46,6.46,0,0,0-1-.36,2.6,2.6,0,0,0-.91-.1Zm0,3.56a1.54,1.54,0,0,1,.63.06,7.68,7.68,0,0,1,.87.31,4,4,0,0,0,1.9.46,4.82,4.82,0,0,0,.87-.22c.19-.06.37-.12.58-.17a5.4,5.4,0,0,1,2,.11l.2,0a21.43,21.43,0,0,1,2.93.68,25.15,25.15,0,0,1-1,3.82l-.09-.22a3.73,3.73,0,0,0-.94-1.52,1.36,1.36,0,0,0-.9-.34,3.21,3.21,0,0,0-1.7.72,5.48,5.48,0,0,1-.57.37,2.11,2.11,0,0,1-2.59-.55,2.2,2.2,0,0,1-.2-.23,2,2,0,0,0-1.23-.85,1.13,1.13,0,0,0-.77.18Zm-16.83-3.56a1.55,1.55,0,0,1,.63.06c.28.08.56.2.86.32a4.1,4.1,0,0,0,1.92.47,4.2,4.2,0,0,0,.86-.23,4.91,4.91,0,0,1,.58-.17,5.52,5.52,0,0,1,2,.1l.42.08a22,22,0,0,1,3.08.76,11,11,0,0,1-.19,2.43,26.16,26.16,0,0,0-2.92-.68l-.26-.05a6.24,6.24,0,0,0-2.36-.08c-.22,0-.44.12-.67.19a4.78,4.78,0,0,1-.66.18,3.28,3.28,0,0,1-1.4-.38,6.57,6.57,0,0,0-1-.36,2.39,2.39,0,0,0-.91-.1Zm0,3.56a1.57,1.57,0,0,1,.64.06,7.55,7.55,0,0,1,.86.31,4,4,0,0,0,1.91.46,5.28,5.28,0,0,0,.87-.22c.18-.06.36-.12.57-.17a5.39,5.39,0,0,1,2,.11l.21,0a22,22,0,0,1,2.92.68,25.15,25.15,0,0,1-1,3.82,2,2,0,0,1-.08-.22,3.73,3.73,0,0,0-.94-1.52,1.38,1.38,0,0,0-.91-.34,3.25,3.25,0,0,0-1.69.72,6.78,6.78,0,0,1-.57.37,2.1,2.1,0,0,1-2.59-.55l-.21-.23a2.06,2.06,0,0,0-1.22-.85,1.15,1.15,0,0,0-.78.18ZM636,141.89a1.76,1.76,0,0,1,.64.06c.27.08.55.2.85.32a4.16,4.16,0,0,0,1.92.47,4.83,4.83,0,0,0,.87-.23,4.74,4.74,0,0,1,.57-.17,5.52,5.52,0,0,1,2,.1l.43.08a21.86,21.86,0,0,1,3.07.76,11,11,0,0,1-.19,2.43,25.66,25.66,0,0,0-2.92-.68L643,145a6.23,6.23,0,0,0-2.36-.08c-.22,0-.44.12-.67.19a5.1,5.1,0,0,1-.65.18,3.24,3.24,0,0,1-1.41-.38,6.46,6.46,0,0,0-1-.36,2.44,2.44,0,0,0-.92-.1Zm0,3.56a1.57,1.57,0,0,1,.64.06,6.92,6.92,0,0,1,.86.31,4,4,0,0,0,1.91.46,4.82,4.82,0,0,0,.87-.22l.57-.17a5.44,5.44,0,0,1,2,.11l.2,0a20.22,20.22,0,0,1,2.92.68,25.15,25.15,0,0,1-1,3.82,2,2,0,0,0-.08-.22,3.73,3.73,0,0,0-.94-1.52,1.38,1.38,0,0,0-.91-.34,3.29,3.29,0,0,0-1.69.72,6.78,6.78,0,0,1-.57.37,2.1,2.1,0,0,1-2.59-.55l-.21-.23a2,2,0,0,0-1.22-.85,1.15,1.15,0,0,0-.78.18Zm-16.82-3.56a1.73,1.73,0,0,1,.63.06c.28.08.55.2.86.32a2.91,2.91,0,0,0,2.78.24c.19-.06.38-.13.57-.17a5.65,5.65,0,0,1,2,.1l.41.08a21.52,21.52,0,0,1,3.07.76,11,11,0,0,1-.19,2.43,25.5,25.5,0,0,0-2.91-.68l-.27-.05a6.19,6.19,0,0,0-2.35-.08c-.22,0-.44.12-.67.19a4.78,4.78,0,0,1-.66.18,3.28,3.28,0,0,1-1.4-.38,7,7,0,0,0-1-.36,2.36,2.36,0,0,0-.91-.1Zm0,3.56a1.52,1.52,0,0,1,.63.06,7.68,7.68,0,0,1,.87.31,4,4,0,0,0,1.9.46,4.82,4.82,0,0,0,.87-.22l.58-.17a5.46,5.46,0,0,1,2,.11l.19,0a19.92,19.92,0,0,1,2.92.68,25.31,25.31,0,0,1-1,3.82l-.09-.22a3.63,3.63,0,0,0-.94-1.52,1.38,1.38,0,0,0-.91-.34,3.29,3.29,0,0,0-1.69.72,5.48,5.48,0,0,1-.57.37,2.11,2.11,0,0,1-2.59-.55,2.2,2.2,0,0,1-.2-.23,2,2,0,0,0-1.22-.85,1.15,1.15,0,0,0-.78.18Zm-16.83-3.56a1.51,1.51,0,0,1,.63.06c.28.08.56.2.86.32a4.1,4.1,0,0,0,1.92.47,4.2,4.2,0,0,0,.86-.23,4,4,0,0,1,2.6-.07l.41.08a22,22,0,0,1,3.08.76,11,11,0,0,1-.19,2.43,25.66,25.66,0,0,0-2.92-.68l-.26-.05a6.2,6.2,0,0,0-2.35-.08c-.23,0-.45.12-.68.19a4.43,4.43,0,0,1-.66.18,3.43,3.43,0,0,1-1.4-.38,6.2,6.2,0,0,0-1-.36,2.39,2.39,0,0,0-.91-.1Zm0,3.56a1.63,1.63,0,0,1,.65.06,8.19,8.19,0,0,1,.85.31,4,4,0,0,0,1.9.46,4.82,4.82,0,0,0,.87-.22l.58-.17a5.45,5.45,0,0,1,2,.11l.19,0a21.09,21.09,0,0,1,2.93.68,24,24,0,0,1-1,3.82,2,2,0,0,1-.08-.22,3.83,3.83,0,0,0-.93-1.52,1.42,1.42,0,0,0-.92-.34,3.25,3.25,0,0,0-1.69.72,5.48,5.48,0,0,1-.57.37,2.1,2.1,0,0,1-2.59-.55l-.21-.23a2,2,0,0,0-1.22-.85,1.15,1.15,0,0,0-.78.18Zm-7.84,5.09a2,2,0,0,0-.08-.22,3.83,3.83,0,0,0-.93-1.52,1.41,1.41,0,0,0-.92-.34,3.29,3.29,0,0,0-1.69.72,5.48,5.48,0,0,1-.57.37,2.1,2.1,0,0,1-2.59-.55l-.21-.23a2,2,0,0,0-1.22-.85,1.15,1.15,0,0,0-.78.18v-2.65a1.63,1.63,0,0,1,.65.06,6.8,6.8,0,0,1,.85.31,4,4,0,0,0,1.92.46,4.71,4.71,0,0,0,.86-.22l.57-.17a5.51,5.51,0,0,1,2,.11l.19,0a19.92,19.92,0,0,1,2.92.68A24,24,0,0,1,594.53,150.54Zm1.19-4.83a26.33,26.33,0,0,0-2.93-.68l-.26-.05a6.18,6.18,0,0,0-2.35-.08c-.23,0-.45.12-.68.19a4.69,4.69,0,0,1-.65.18,3.35,3.35,0,0,1-1.41-.38,6.09,6.09,0,0,0-1-.36,2.42,2.42,0,0,0-.92-.1v-2.54a1.84,1.84,0,0,1,.65.06c.26.08.55.2.84.32a4.17,4.17,0,0,0,1.93.47,4.72,4.72,0,0,0,.86-.23,5.36,5.36,0,0,1,.57-.17,5.59,5.59,0,0,1,2,.1l.41.08a21.66,21.66,0,0,1,3.08.76A11.53,11.53,0,0,1,595.72,145.71Zm8.11,35-3.37-17.42h43l-3.38,17.42ZM677,188.94h-7.43v-4.82H677Zm12.57,0h-7.43v-4.82h7.43Zm19.75-14.57h-67l2.14-11.08h64.84Z"/></g></g></svg>