<svg xmlns="http://www.w3.org/2000/svg" viewBox="0 0 720 413.89"><g id="Layer_2" data-name="Layer 2"><g id="Layer_1-2" data-name="Layer 1"><path d="M719,165.58H697l-6.49-21.79h18.8a1,1,0,0,0,1-1V135a1,1,0,0,0-1-1h-1.13V121.53a1,1,0,0,0-1-1H692.82a1,1,0,0,0-1,1V134h-4.2l-5.83-19.56H702a1,1,0,0,0,1-1v-7a1,1,0,0,0-1-1H701V94.31a1,1,0,0,0-1-1H687.07a1,1,0,0,0-1,1v11.12h-7l-2.4-8.05a1,1,0,0,0-1-.72H673.4V87.82H690a1,1,0,0,0,1-1V81.07a1,1,0,0,0-1-1h-.56V71.1a1,1,0,0,0-1-1H677.77a1,1,0,0,0-1,1V80H673.4V63H694a1,1,0,0,0,1-1V56.91a1,1,0,0,0-1-1h-4.82L691,42.11c0-5.87-4.18-10.67-9.31-10.67s-9.27,4.8-9.25,10.85l2.39,13.6H655.36L643.05.8a1,1,0,0,0-1-.8H628.12a1,1,0,0,0-1,.8L614.8,55.89h-20l1.82-13.78c0-5.87-4.18-10.67-9.29-10.67S578,36.24,578,42.29l2.41,13.6h-4.26a1,1,0,0,0-1,1V62a1,1,0,0,0,1,1h20.57V80H593.4V71.1a1,1,0,0,0-1-1H581.79a1,1,0,0,0-1,1V80h-.58a1,1,0,0,0-1,1v5.72a1,1,0,0,0,1,1h16.58v8.84H594.5a1,1,0,0,0-1,.72l-2.41,8.05h-7V94.31a1,1,0,0,0-1-1H570.16a1,1,0,0,0-1,1v11.12h-.91a1,1,0,0,0-1,1v7a1,1,0,0,0,1,1h20.2L582.59,134h-4.22V121.53a1,1,0,0,0-1-1H563a1,1,0,0,0-1,1V134h-1.11a1,1,0,0,0-1,1v7.72a1,1,0,0,0,1,1h18.8l-6.49,21.79H550.26a1,1,0,0,0-1,1V209a1.06,1.06,0,0,0,.37.79,1.13,1.13,0,0,0,.84.22c.33-.06,33.91-5.87,42.21,15.45v29.24H539c-2-1.14-4-2.39-6.09-3.77L529,202.83a1.25,1.25,0,0,0-1.25-1.26,1.22,1.22,0,0,0-1.24,1.15l-3.58,40.63c-13.67-11.76-27.41-29.9-34.62-57.47v-1a1,1,0,0,0-1-1h-16l-3.91-48a1.22,1.22,0,0,0-1.25-1.23,1.19,1.19,0,0,0-1.24,1.15l-3.91,48.08H266.25a1,1,0,0,0-1,1V188c-7.21,26-20.82,46.31-40.55,60.58l-3.66-42a1.25,1.25,0,0,0-1.26-1.25,1.19,1.19,0,0,0-1.23,1.17l-3.81,45.63H65l-3.83-45.55a1.25,1.25,0,0,0-1.26-1.25,1.21,1.21,0,0,0-1.24,1.17l-3.8,45.63h-5.5l-3.81-45.55a1.25,1.25,0,0,0-1.26-1.25A1.22,1.22,0,0,0,43,206.47L39.23,252.1H1a1,1,0,0,0-1,1v30.19a1,1,0,0,0,1,1H91L93.86,317a1.06,1.06,0,0,0,.68.89L217.4,363.54l9.41,36.65c2.43,8.08,10.57,13.7,19.81,13.7h316.8c9.25,0,17.4-5.62,19.79-13.7l9-30L680.16,338a1.06,1.06,0,0,0,.68-1V296l25.08-6.65a1,1,0,0,0,.78-1V255.77a1,1,0,0,0-1-1h-29.1V225.5c8.3-21.32,41.87-15.51,42.22-15.45a1.18,1.18,0,0,0,.84-.22A1.06,1.06,0,0,0,720,209V166.61A1,1,0,0,0,719,165.58ZM551.29,185.51V167.63H573l2.68,17.88Zm39.35,0H577.82l-2.68-17.88h15.5Zm-448,79.77h13.57v5.89H142.68Zm-15.63,0h13.57v5.89H127.05Zm-15.63,0H125v5.89H111.42Zm-15.61,0h13.55v5.89H95.81Zm-80.18,5.89H2.06v-5.89H15.63Zm15.61,0H17.69v-5.89H31.24Zm15.63,0H33.3v-5.89H46.87Zm15.62,0H48.93v-5.89H62.49Zm15.63,0H64.55v-5.89H78.12Zm2.06,0v-5.89H93.75v5.89Zm52.63,49.19H127.4v-12h5.41Zm17.65,0h-5.39v-12h5.39Zm9.62-20.59H94.41l-.31-3.69h66Zm0-5.74H93.92l-.85-9.68h67Zm11.8-22.86H158.31v-5.89h13.57Zm15.6,0H173.94v-5.89h13.54Zm15.63,0H189.54v-5.89h13.57Zm15.63,0H205.17v-5.89h13.57Zm190.6-75.8h13.73v5.91H409.34Zm10.09,99.48c-.39,2-2.95,3.64-5.6,3.64a4.21,4.21,0,0,1-3.34-1.31,2.24,2.24,0,0,1-.51-1.45,2,2,0,0,1,0-.49c.39-2,2.94-3.64,5.58-3.64a4.27,4.27,0,0,1,3.35,1.31A2.26,2.26,0,0,1,419.43,294.85Zm-89-99.48h13.71v5.91H330.43Zm11.08,99.87a2.21,2.21,0,0,1-.5,1.94,4.19,4.19,0,0,1-3.33,1.31c-2.64,0-5.21-1.66-5.58-3.64a2.26,2.26,0,0,1,.47-1.94,4.22,4.22,0,0,1,3.34-1.31C338.56,291.6,341.12,293.26,341.51,295.24Zm-26.87-99.87h13.73v5.91H314.64ZM281,201.28H267.28v-5.91H281Zm15.79,0H283.07v-5.91H296.8Zm2.06-5.91h13.72v5.91H298.86ZM310,298.29c-1.13-1.18-4.42-4.37-6.75-6.57H314c2.14,2,5,4.8,6.83,6.57ZM352,334c-2.41,2.89-9.78.89-16.12-4.36a25.87,25.87,0,0,1-7.05-8.75c-1.19-2.7-1.27-5-.18-6.3a2.78,2.78,0,0,1,.72-.64h0c.49,4,3.73,9,8.65,13.09,4.67,3.9,9.84,6.14,13.86,6.14l.57,0A3,3,0,0,1,352,334Zm-12.64-8.54c-4.66-3.85-7.73-8.61-7.95-12.13a10.06,10.06,0,0,1,3.46.31,28.42,28.42,0,0,1,16.92,14.06,10,10,0,0,1,.93,3.36C349.15,331.46,343.94,329.32,339.31,325.47Zm20.63-124.19H346.2v-5.91h13.74Zm2.06-5.91h13.71v5.91H362Zm17.11,179.91c-.37,12.17-.87,24.46-1.42,36.55h-1.88c-.06-.93-.1-1.85-.14-2.78v-.21c-.41-8.58-1-25.39-1.28-33.58-1-17-1.64-33.69.42-50.22.39-3.83,1-8.69,1.93-13.78C380.94,333.54,380.32,356,379.11,375.28Zm-3.36-80.1c-3,0-5.52-2.06-5.52-4.61s2.5-4.6,5.52-4.6,5.52,2.06,5.52,4.6S378.8,295.18,375.75,295.18Zm15.75-93.9H377.77v-5.91H391.5Zm2.06-5.91h13.72v5.91H393.56ZM400.24,334c-1.1-1.29-1-3.6.2-6.28a25.53,25.53,0,0,1,7-8.75c4.51-3.77,9.74-6,13.31-5.64a3.93,3.93,0,0,1,2.82,1.28,3,3,0,0,1,.49.84c-4.08-.25-9.55,2-14.45,6.1s-8.18,9.06-8.67,13.09A2.87,2.87,0,0,1,400.24,334Zm2.78,1.26c.22-3.34,3-7.74,7.2-11.47a2.53,2.53,0,0,0-.06.56v7.31a3.08,3.08,0,0,0,.52,1.71A15,15,0,0,1,403,335.27Zm12.33,72.91a1,1,0,0,1-1,1.05h-1.05a1,1,0,0,1-1-1.05v-7.31a1.06,1.06,0,0,1,1-1.05h1.05a1,1,0,0,1,1,1.05Zm0-19.13a1,1,0,0,1-1,1.05h-1.05a1,1,0,0,1-1-1.05v-7.31a1.06,1.06,0,0,1,1-1.05h1.05a1,1,0,0,1,1,1.05Zm0-19.12a1,1,0,0,1-1,1.05h-1.05a1.06,1.06,0,0,1-1-1.05v-7.31a1.06,1.06,0,0,1,1-1.06h1.05a1,1,0,0,1,1,1.06Zm0-19.13a1,1,0,0,1-1,1.05h-1.05a1.06,1.06,0,0,1-1-1.05v-7.34a1,1,0,0,1,1-1h1.05a1,1,0,0,1,1,1Zm0-19.13a1,1,0,0,1-1,1.05h-1.05a1.06,1.06,0,0,1-1-1.05v-7.31a1,1,0,0,1,1-1.05h1.05a1,1,0,0,1,1,1.05Zm2.06-2.95v-4.36a3.1,3.1,0,0,0-3.09-3.11h-.8c3.91-2.66,8-4,10.85-3.69C424.1,320.69,421.49,325,417.41,328.72Zm7.72-133.35h13.74v5.91H425.13Zm16.45,102.92H430.81c2.33-2.23,5.63-5.4,6.76-6.57h10.85C446.63,293.49,443.72,296.25,441.58,298.29Zm13.06-97H440.92v-5.91h13.72Zm15.79,0H456.7v-5.91h13.73Zm15.77,0H472.49v-5.91H486.2Zm71.27,84.63h-4.24V274.22h4.24Zm2.06,0V274.22h10.52v11.69ZM572,380l-8-2.3,4.08-21.77a67.2,67.2,0,0,1,8.83,2.66Zm10.67-94.06H572.11V274.22h10.55Zm53-82.86H655.1v14H635.64Zm19.41-17.54H635.64V167.63h19.41ZM634.75,77a12.77,12.77,0,0,1,12.56,12.93,13.15,13.15,0,0,1-1.85,6.78H624a13.15,13.15,0,0,1-1.85-6.78A12.77,12.77,0,0,1,634.75,77Zm-18.16,28.79c1.75-.39,8-.85,18.16-.85s16.41.46,18.16.85v37.31c-4.14-1.55-13.5-1.75-18.16-1.75s-14,.2-18.16,1.75ZM592.7,167.63h19.4v17.88H592.7Zm19.38,35.42v14H601v-14Zm-16.82,82.86H584.71V274.22h10.55Zm12.58,0H597.32V274.22l10.52,0Zm12.6,0h-2.29v0H609.9V274.2h10.54Zm12.6,0H622.5V274.2H633Zm.54-68.88H614.14v-14h19.44Zm0-31.5H614.16V167.63h19.42Zm12,100.38H635.1V274.2h10.52Zm12.61,0H647.68V274.2h10.55ZM657.15,217v-14h11.06v14Zm13.33,70.18L660.28,286V274.34l10.2,1.19Zm6-101.68h-19.4V167.63h19.4Zm2.06,0V167.63H694.9l-4.7,17.88Zm39.37,0H692.33L697,167.63h20.92Z"/></g></g></svg>